<svg xmlns="http://www.w3.org/2000/svg" width="456" height="193" fill="none"><path fill="#15151E" d="M0 0h456v193H0z"/><rect width="455" height="192" x=".5" y=".5" stroke="#24252B" rx="4.5"/><path stroke="#9B9AA1" stroke-linecap="round" stroke-linejoin="round" stroke-miterlimit="10" stroke-width="2" d="m21 22.5-3.704-3.674a1.135 1.135 0 0 0-1.591 0L12 22.5"/><path fill="#9B9AA1" d="M30.878 25.12c-.585 0-1.108-.102-1.568-.303a2.662 2.662 0 0 1-1.087-.84 2.229 2.229 0 0 1-.426-1.253h1.338c.017.259.104.483.26.674.159.187.366.332.622.434.256.103.54.154.852.154.344 0 .648-.06.912-.18a1.49 1.49 0 0 0 .627-.498c.15-.216.225-.464.225-.745 0-.293-.075-.55-.225-.772a1.472 1.472 0 0 0-.652-.528c-.284-.128-.628-.192-1.032-.192h-.737v-1.074h.737c.324 0 .608-.058.853-.175.247-.116.44-.278.58-.485.139-.21.208-.456.208-.738 0-.27-.061-.504-.183-.703-.12-.201-.29-.36-.512-.473a1.662 1.662 0 0 0-.775-.17c-.284 0-.55.052-.797.157a1.48 1.48 0 0 0-.597.444 1.14 1.14 0 0 0-.247.686H27.98c.014-.472.154-.887.418-1.244a2.7 2.7 0 0 1 1.056-.84 3.44 3.44 0 0 1 1.458-.303c.56 0 1.043.11 1.449.329.409.215.724.504.946.865.224.36.335.755.332 1.184.003.489-.133.904-.409 1.245-.273.34-.636.57-1.09.686v.068c.579.088 1.028.318 1.346.69.32.372.48.834.477 1.385.003.48-.13.91-.4 1.291-.268.381-.633.68-1.096.9-.463.215-.993.323-1.59.323Zm8.007-8.847V25h-1.321v-7.406h-.051l-2.088 1.363v-1.261l2.177-1.423h1.283Z"/><rect width="177" height="16" x="12" y="39" fill="#797979" fill-opacity=".25" rx="4"/><rect width="225" height="16" x="12" y="65" fill="#797979" fill-opacity=".1" rx="4"/><rect width="115" height="27" x="12.5" y="91.5" stroke="#37363D" rx="13.5"/><circle cx="24" cy="105" r="4" fill="#429A73"/><path fill="#fff" d="M35.466 99.818V110h-1.233V99.818h1.233ZM37.779 110v-7.636h1.133v1.193h.1c.159-.408.416-.724.77-.95.355-.228.781-.343 1.278-.343.504 0 .923.115 1.258.343.338.226.602.542.79.95h.08c.196-.395.489-.708.88-.94.391-.235.86-.353 1.407-.353.683 0 1.241.214 1.675.642.435.424.652 1.085.652 1.983V110h-1.174v-5.111c0-.563-.154-.966-.462-1.208a1.71 1.71 0 0 0-1.089-.363c-.537 0-.953.163-1.248.487-.295.322-.442.73-.442 1.223V110h-1.193v-5.23c0-.434-.141-.784-.423-1.049-.282-.269-.645-.403-1.089-.403-.305 0-.59.081-.855.244a1.839 1.839 0 0 0-.636.676c-.16.285-.239.615-.239.989V110H37.78Zm12.168 2.864v-10.5h1.133v1.213h.14c.086-.133.205-.302.358-.507a2.09 2.09 0 0 1 .666-.557c.291-.166.686-.249 1.183-.249.643 0 1.21.161 1.7.482.49.322.874.778 1.149 1.368.275.59.412 1.286.412 2.088 0 .808-.137 1.509-.412 2.103-.275.59-.657 1.047-1.144 1.372-.487.321-1.049.482-1.685.482-.49 0-.883-.081-1.178-.244a2.185 2.185 0 0 1-.681-.561 7.55 7.55 0 0 1-.368-.527h-.1v4.037h-1.173Zm1.153-6.682c0 .577.085 1.085.254 1.526.169.438.416.781.74 1.029.325.245.723.368 1.194.368.49 0 .9-.129 1.228-.388.331-.262.58-.613.745-1.054.17-.444.254-.938.254-1.481a4.02 4.02 0 0 0-.248-1.452 2.244 2.244 0 0 0-.741-1.029c-.328-.255-.741-.383-1.238-.383-.477 0-.878.121-1.203.363-.325.239-.57.573-.736 1.004-.166.428-.249.927-.249 1.497ZM58.478 110v-7.636h1.134v1.153h.08c.138-.378.39-.684.755-.92a2.227 2.227 0 0 1 1.233-.353c.086 0 .194.002.323.005a5.3 5.3 0 0 1 .293.015v1.193a3.65 3.65 0 0 0-.273-.044 2.606 2.606 0 0 0-.443-.035c-.37 0-.702.078-.994.234a1.758 1.758 0 0 0-.686.636 1.714 1.714 0 0 0-.248.92V110h-1.174Zm8.079.159c-.69 0-1.294-.164-1.815-.492a3.342 3.342 0 0 1-1.213-1.377c-.288-.59-.432-1.28-.432-2.068 0-.796.144-1.49.432-2.084a3.344 3.344 0 0 1 1.213-1.382c.52-.328 1.126-.492 1.815-.492.69 0 1.293.164 1.81.492.52.329.924.789 1.213 1.382.291.594.437 1.288.437 2.084 0 .788-.146 1.478-.437 2.068a3.296 3.296 0 0 1-1.213 1.377c-.517.328-1.12.492-1.81.492Zm0-1.054c.524 0 .954-.134 1.293-.403.338-.268.588-.621.75-1.059a4.05 4.05 0 0 0 .244-1.421c0-.511-.081-.986-.244-1.427a2.405 2.405 0 0 0-.75-1.069c-.338-.272-.77-.408-1.293-.408-.524 0-.954.136-1.293.408a2.405 2.405 0 0 0-.75 1.069 4.095 4.095 0 0 0-.244 1.427c0 .51.081.984.244 1.421.162.438.412.791.75 1.059.339.269.77.403 1.293.403Zm11.222-6.741L74.955 110h-1.193l-2.824-7.636h1.273l2.108 6.085h.08l2.107-6.085h1.273Zm4.477 7.795c-.736 0-1.37-.162-1.904-.487a3.273 3.273 0 0 1-1.228-1.372c-.285-.59-.428-1.276-.428-2.059 0-.782.143-1.471.428-2.068.288-.6.69-1.067 1.203-1.402.517-.338 1.12-.507 1.81-.507.397 0 .79.066 1.178.199.388.133.74.348 1.059.646.318.295.572.686.76 1.174.19.487.284 1.087.284 1.799v.498h-5.886v-1.015h4.693c0-.431-.086-.815-.259-1.153a1.944 1.944 0 0 0-.726-.8c-.311-.196-.679-.294-1.103-.294-.468 0-.872.116-1.213.348a2.29 2.29 0 0 0-.78.895 2.628 2.628 0 0 0-.274 1.183v.676c0 .577.1 1.066.298 1.467.202.398.482.701.84.91.358.205.774.308 1.248.308.308 0 .587-.043.835-.129a1.79 1.79 0 0 0 .652-.398c.182-.179.323-.401.422-.666l1.134.318a2.51 2.51 0 0 1-.602 1.014c-.282.289-.63.514-1.044.676-.414.16-.88.239-1.397.239Zm4.947-.159v-7.636h1.133v1.193h.1c.159-.408.416-.724.77-.95.355-.228.78-.343 1.278-.343.504 0 .923.115 1.258.343.338.226.601.542.79.95h.08a2.22 2.22 0 0 1 .88-.94c.39-.235.86-.353 1.407-.353.683 0 1.241.214 1.675.642.434.424.651 1.085.651 1.983V110h-1.173v-5.111c0-.563-.154-.966-.462-1.208a1.71 1.71 0 0 0-1.089-.363c-.537 0-.953.163-1.248.487-.295.322-.442.73-.442 1.223V110h-1.194v-5.23c0-.434-.14-.784-.422-1.049-.282-.269-.645-.403-1.089-.403-.305 0-.59.081-.855.244a1.838 1.838 0 0 0-.636.676c-.16.285-.239.615-.239.989V110h-1.173Zm15.369.159c-.735 0-1.37-.162-1.904-.487a3.275 3.275 0 0 1-1.228-1.372c-.285-.59-.427-1.276-.427-2.059 0-.782.142-1.471.427-2.068.289-.6.69-1.067 1.203-1.402.518-.338 1.121-.507 1.81-.507.398 0 .791.066 1.178.199.388.133.741.348 1.059.646.319.295.572.686.761 1.174.189.487.283 1.087.283 1.799v.498h-5.886v-1.015h4.693c0-.431-.086-.815-.258-1.153a1.943 1.943 0 0 0-.726-.8c-.312-.196-.68-.294-1.104-.294-.467 0-.872.116-1.213.348a2.288 2.288 0 0 0-.78.895 2.62 2.62 0 0 0-.274 1.183v.676c0 .577.1 1.066.298 1.467.203.398.483.701.841.91.358.205.773.308 1.247.308.309 0 .587-.043.836-.129.252-.09.469-.222.651-.398a1.82 1.82 0 0 0 .423-.666l1.133.318c-.119.385-.32.723-.602 1.014a2.905 2.905 0 0 1-1.044.676c-.414.16-.88.239-1.397.239Zm6.12-4.753V110h-1.173v-7.636h1.134v1.193h.099c.179-.388.451-.7.815-.935.365-.238.836-.358 1.412-.358.517 0 .97.106 1.358.318.387.209.689.527.904.955.216.424.324.961.324 1.611V110h-1.174v-4.773c0-.6-.155-1.067-.467-1.402-.312-.338-.739-.507-1.283-.507-.374 0-.709.081-1.004.244a1.736 1.736 0 0 0-.691.711c-.169.311-.254.689-.254 1.133Zm10.338-3.042v.994h-3.958v-.994h3.958Zm-2.804-1.83h1.173v7.278c0 .332.048.581.144.746.1.163.226.272.378.328.156.053.32.08.492.08.129 0 .235-.007.318-.02l.199-.04.239 1.054a2.469 2.469 0 0 1-.875.139c-.332 0-.656-.071-.975-.213a1.944 1.944 0 0 1-.785-.652c-.206-.291-.308-.659-.308-1.103v-7.597Z"/><rect width="90" height="27" x="132.5" y="91.5" stroke="#37363D" rx="13.5"/><path fill="#fff" d="M149.307 99.818V110h-1.193l-5.549-7.994h-.099V110h-1.233V99.818h1.193l5.568 8.014h.1v-8.014h1.213Zm5.41 10.341c-.689 0-1.294-.164-1.814-.492a3.34 3.34 0 0 1-1.214-1.377c-.288-.59-.432-1.28-.432-2.068 0-.796.144-1.49.432-2.084a3.342 3.342 0 0 1 1.214-1.382c.52-.328 1.125-.492 1.814-.492.69 0 1.293.164 1.81.492.52.329.925.789 1.213 1.382.292.594.437 1.288.437 2.084 0 .788-.145 1.478-.437 2.068a3.296 3.296 0 0 1-1.213 1.377c-.517.328-1.12.492-1.81.492Zm0-1.054c.524 0 .955-.134 1.293-.403.338-.268.588-.621.75-1.059.163-.437.244-.911.244-1.421 0-.511-.081-.986-.244-1.427a2.401 2.401 0 0 0-.75-1.069c-.338-.272-.769-.408-1.293-.408-.524 0-.954.136-1.292.408a2.395 2.395 0 0 0-.751 1.069 4.081 4.081 0 0 0-.244 1.427c0 .51.081.984.244 1.421.162.438.412.791.751 1.059.338.269.768.403 1.292.403Zm9.189 3.759v-10.5h1.133v1.213h.14c.086-.133.205-.302.358-.507.155-.209.377-.395.666-.557.291-.166.686-.249 1.183-.249.643 0 1.21.161 1.7.482.491.322.874.778 1.149 1.368.275.59.412 1.286.412 2.088 0 .808-.137 1.509-.412 2.103-.275.59-.657 1.047-1.144 1.372-.487.321-1.049.482-1.685.482-.491 0-.883-.081-1.178-.244a2.182 2.182 0 0 1-.681-.561 7.195 7.195 0 0 1-.368-.527h-.1v4.037h-1.173Zm1.153-6.682c0 .577.085 1.085.254 1.526.169.438.416.781.741 1.029.324.245.722.368 1.193.368.49 0 .9-.129 1.228-.388.331-.262.58-.613.746-1.054.169-.444.253-.938.253-1.481 0-.537-.083-1.021-.249-1.452a2.243 2.243 0 0 0-.74-1.029c-.328-.255-.741-.383-1.238-.383-.477 0-.879.121-1.203.363-.325.239-.57.573-.736 1.004-.166.428-.249.927-.249 1.497Zm7.378 3.818v-7.636h1.134v1.153h.079c.139-.378.391-.684.756-.92a2.224 2.224 0 0 1 1.233-.353c.086 0 .194.002.323.005.129.004.227.009.293.015v1.193a3.606 3.606 0 0 0-.273-.044 2.608 2.608 0 0 0-.443-.035c-.371 0-.702.078-.994.234a1.712 1.712 0 0 0-.935 1.556V110h-1.173Zm8.079.159c-.689 0-1.294-.164-1.815-.492a3.345 3.345 0 0 1-1.213-1.377c-.288-.59-.432-1.28-.432-2.068 0-.796.144-1.49.432-2.084a3.347 3.347 0 0 1 1.213-1.382c.521-.328 1.126-.492 1.815-.492.689 0 1.293.164 1.81.492.52.329.924.789 1.213 1.382.291.594.437 1.288.437 2.084 0 .788-.146 1.478-.437 2.068a3.303 3.303 0 0 1-1.213 1.377c-.517.328-1.121.492-1.81.492Zm0-1.054c.524 0 .955-.134 1.293-.403.338-.268.588-.621.75-1.059.163-.437.244-.911.244-1.421 0-.511-.081-.986-.244-1.427a2.401 2.401 0 0 0-.75-1.069c-.338-.272-.769-.408-1.293-.408-.524 0-.955.136-1.293.408a2.401 2.401 0 0 0-.75 1.069 4.081 4.081 0 0 0-.244 1.427c0 .51.081.984.244 1.421.162.438.412.791.75 1.059.338.269.769.403 1.293.403Zm8.135 1.054c-.637 0-1.198-.161-1.686-.482-.487-.325-.868-.782-1.143-1.372-.275-.594-.413-1.295-.413-2.103 0-.802.138-1.498.413-2.088.275-.59.658-1.046 1.148-1.368.491-.321 1.058-.482 1.701-.482.497 0 .89.083 1.178.249.292.162.514.348.666.557.156.205.277.374.363.507h.099v-3.759h1.174V110h-1.134v-1.173h-.139a7.523 7.523 0 0 1-.368.527 2.182 2.182 0 0 1-.681.561c-.295.163-.688.244-1.178.244Zm.159-1.054c.47 0 .868-.123 1.193-.368.325-.248.572-.591.741-1.029.169-.441.253-.949.253-1.526 0-.57-.083-1.069-.248-1.497-.166-.431-.411-.765-.736-1.004-.325-.242-.726-.363-1.203-.363-.497 0-.912.128-1.243.383a2.296 2.296 0 0 0-.741 1.029 4.102 4.102 0 0 0-.243 1.452c0 .543.082 1.037.248 1.481.169.441.418.792.746 1.054.331.259.742.388 1.233.388Zm10.465-2.227v-4.514h1.173V110h-1.173v-1.293h-.08a2.497 2.497 0 0 1-.835.99c-.378.268-.855.402-1.432.402-.477 0-.901-.104-1.272-.313a2.192 2.192 0 0 1-.875-.954c-.212-.428-.318-.966-.318-1.616v-4.852h1.173v4.772c0 .557.156 1.001.467 1.333.315.331.716.497 1.203.497.292 0 .589-.075.89-.224.305-.149.56-.378.766-.686.209-.308.313-.701.313-1.178Zm6.425 3.281c-.716 0-1.333-.169-1.85-.507a3.303 3.303 0 0 1-1.193-1.397c-.278-.593-.418-1.271-.418-2.033 0-.776.143-1.46.428-2.054a3.38 3.38 0 0 1 1.203-1.397c.517-.338 1.12-.507 1.81-.507.537 0 1.021.1 1.451.298.431.199.784.478 1.059.836a2.6 2.6 0 0 1 .512 1.253h-1.173c-.089-.348-.288-.657-.596-.925-.305-.272-.716-.408-1.233-.408a2.06 2.06 0 0 0-1.204.358c-.341.235-.608.569-.8.999-.189.428-.283.93-.283 1.507 0 .59.092 1.104.278 1.541.189.438.454.777.796 1.019.344.242.749.363 1.213.363a2.1 2.1 0 0 0 .83-.159 1.71 1.71 0 0 0 .631-.457 1.75 1.75 0 0 0 .368-.716h1.173a2.72 2.72 0 0 1-.492 1.218 2.74 2.74 0 0 1-1.029.855c-.424.209-.918.313-1.481.313Zm8.039-7.795v.994h-3.958v-.994h3.958Zm-2.804-1.83h1.173v7.278c0 .332.048.581.144.746.1.163.226.272.378.328.156.053.32.08.492.08.129 0 .235-.007.318-.02l.199-.04.239 1.054a2.469 2.469 0 0 1-.875.139c-.332 0-.656-.071-.975-.213a1.944 1.944 0 0 1-.785-.652c-.206-.291-.308-.659-.308-1.103v-7.597Z"/><rect width="131" height="27" x="12.5" y="123.5" stroke="#37363D" rx="13.5"/><path fill="#fff" d="M21.233 142v-10.182h6.105v1.094h-4.872v3.44h4.415v1.094h-4.415V142h-1.233Zm10.699.159c-.736 0-1.37-.162-1.904-.487A3.273 3.273 0 0 1 28.8 140.3c-.285-.59-.428-1.276-.428-2.059 0-.782.143-1.471.428-2.068.288-.6.69-1.067 1.203-1.402.517-.338 1.12-.507 1.81-.507.397 0 .79.066 1.178.199.388.133.74.348 1.059.646.318.295.571.686.76 1.174.19.487.284 1.087.284 1.799v.498h-5.887v-1.015h4.694a2.5 2.5 0 0 0-.259-1.153 1.943 1.943 0 0 0-.726-.8c-.311-.196-.68-.294-1.103-.294-.468 0-.872.116-1.214.348a2.291 2.291 0 0 0-.78.895 2.628 2.628 0 0 0-.273 1.183v.676c0 .577.099 1.066.298 1.467.202.398.482.701.84.91.358.205.774.308 1.248.308.308 0 .587-.043.835-.129a1.79 1.79 0 0 0 .651-.398c.183-.179.324-.401.423-.666l1.133.318c-.119.385-.32.723-.601 1.014-.282.289-.63.514-1.044.676-.415.16-.88.239-1.397.239Zm7.194.02c-.484 0-.923-.091-1.318-.273a2.265 2.265 0 0 1-.94-.801c-.231-.351-.347-.775-.347-1.273 0-.437.086-.792.258-1.064.172-.275.403-.49.691-.646.288-.156.607-.272.955-.348.351-.079.704-.142 1.059-.189.464-.059.84-.104 1.128-.134.292-.033.504-.088.637-.164.136-.076.203-.209.203-.398v-.04c0-.49-.134-.871-.402-1.143-.265-.272-.668-.408-1.208-.408-.56 0-1 .123-1.318.368-.318.245-.542.507-.671.786l-1.114-.398c.2-.464.464-.825.796-1.084.335-.262.7-.444 1.094-.547a4.543 4.543 0 0 1 1.173-.159c.245 0 .527.03.845.09a2.7 2.7 0 0 1 .93.353c.301.179.552.449.75.81.2.361.299.845.299 1.452V142h-1.174v-1.034h-.06a2.036 2.036 0 0 1-.397.532c-.186.189-.432.35-.74.482-.309.133-.685.199-1.13.199Zm.179-1.054c.464 0 .855-.091 1.173-.273a1.87 1.87 0 0 0 .726-.706c.166-.289.248-.592.248-.91v-1.074c-.05.06-.159.114-.328.164a5.527 5.527 0 0 1-.576.124c-.216.033-.426.063-.632.09-.202.023-.366.043-.492.059-.305.04-.59.105-.855.194a1.47 1.47 0 0 0-.637.393c-.159.172-.238.408-.238.706 0 .408.15.716.452.925.305.205.691.308 1.159.308Zm8.783-6.761v.994h-3.957v-.994h3.957Zm-2.804-1.83h1.174v7.278c0 .332.048.581.144.746.1.163.225.272.378.328.155.053.32.08.492.08.129 0 .235-.007.318-.02l.199-.04.239 1.054c-.08.03-.191.06-.334.09a2.467 2.467 0 0 1-.541.049 2.37 2.37 0 0 1-.975-.213 1.939 1.939 0 0 1-.785-.652c-.206-.291-.309-.659-.309-1.103v-7.597Zm9.382 6.344v-4.514h1.173V142h-1.173v-1.293h-.08a2.508 2.508 0 0 1-.835.99c-.378.268-.855.402-1.432.402a2.55 2.55 0 0 1-1.273-.313 2.192 2.192 0 0 1-.875-.954c-.212-.428-.318-.966-.318-1.616v-4.852h1.173v4.772c0 .557.156 1.001.468 1.333.315.331.716.497 1.203.497a2 2 0 0 0 .89-.224 1.94 1.94 0 0 0 .765-.686c.21-.308.314-.701.314-1.178ZM57.988 142v-7.636h1.133v1.153h.08a1.84 1.84 0 0 1 .756-.92 2.227 2.227 0 0 1 1.233-.353c.086 0 .194.002.323.005.129.004.227.009.293.015v1.193c-.04-.01-.13-.024-.273-.044a2.606 2.606 0 0 0-.443-.035c-.371 0-.703.078-.994.234a1.756 1.756 0 0 0-.686.636 1.714 1.714 0 0 0-.249.92V142h-1.173Zm8.178.159c-.736 0-1.37-.162-1.904-.487a3.273 3.273 0 0 1-1.228-1.372c-.285-.59-.428-1.276-.428-2.059 0-.782.143-1.471.428-2.068.288-.6.69-1.067 1.203-1.402.517-.338 1.12-.507 1.81-.507.398 0 .79.066 1.178.199.388.133.74.348 1.06.646.317.295.57.686.76 1.174.189.487.283 1.087.283 1.799v.498h-5.886v-1.015h4.693a2.5 2.5 0 0 0-.259-1.153 1.944 1.944 0 0 0-.725-.8c-.312-.196-.68-.294-1.104-.294-.468 0-.872.116-1.213.348a2.29 2.29 0 0 0-.78.895 2.628 2.628 0 0 0-.274 1.183v.676c0 .577.1 1.066.298 1.467.202.398.482.701.84.91.358.205.774.308 1.248.308.308 0 .587-.043.835-.129a1.79 1.79 0 0 0 .652-.398c.182-.179.323-.401.422-.666l1.134.318a2.51 2.51 0 0 1-.602 1.014c-.281.289-.63.514-1.044.676-.414.16-.88.239-1.397.239ZM75.21 142v-10.182h3.44c.795 0 1.448.136 1.959.408.51.268.888.638 1.133 1.109.245.47.368 1.005.368 1.605 0 .6-.123 1.132-.368 1.596-.245.464-.621.829-1.128 1.094-.508.262-1.155.393-1.944.393h-2.784v-1.114h2.744c.544 0 .981-.079 1.313-.239.334-.159.576-.384.725-.676.153-.295.229-.646.229-1.054 0-.407-.076-.764-.229-1.069a1.564 1.564 0 0 0-.73-.706c-.335-.169-.778-.253-1.328-.253h-2.168V142H75.21Zm4.792-4.574L82.508 142h-1.432l-2.466-4.574h1.392Zm7.123 4.733c-.736 0-1.37-.162-1.904-.487a3.273 3.273 0 0 1-1.228-1.372c-.285-.59-.427-1.276-.427-2.059 0-.782.142-1.471.427-2.068.288-.6.69-1.067 1.203-1.402.517-.338 1.12-.507 1.81-.507.398 0 .79.066 1.178.199.388.133.74.348 1.06.646.317.295.57.686.76 1.174.189.487.283 1.087.283 1.799v.498h-5.886v-1.015h4.693a2.5 2.5 0 0 0-.259-1.153 1.944 1.944 0 0 0-.725-.8c-.312-.196-.68-.294-1.104-.294-.468 0-.872.116-1.213.348a2.29 2.29 0 0 0-.78.895 2.628 2.628 0 0 0-.274 1.183v.676c0 .577.1 1.066.298 1.467.202.398.482.701.84.91.358.205.774.308 1.248.308.308 0 .587-.043.835-.129a1.79 1.79 0 0 0 .652-.398c.182-.179.323-.401.422-.666l1.134.318a2.51 2.51 0 0 1-.602 1.014c-.282.289-.63.514-1.044.676-.414.16-.88.239-1.397.239Zm10.157 2.705v-4.037h-.1a7.55 7.55 0 0 1-.367.527c-.16.208-.386.396-.681.561-.295.163-.688.244-1.179.244-.636 0-1.198-.161-1.685-.482-.487-.325-.868-.782-1.143-1.372-.275-.594-.413-1.295-.413-2.103 0-.802.138-1.498.413-2.088.275-.59.657-1.046 1.148-1.368.49-.321 1.057-.482 1.7-.482.498 0 .89.083 1.179.249.291.162.513.348.666.557a8.7 8.7 0 0 1 .363.507h.139v-1.213h1.133v10.5h-1.173Zm-2.167-3.759c.47 0 .868-.123 1.193-.368.324-.248.571-.591.74-1.029.17-.441.254-.949.254-1.526 0-.57-.083-1.069-.249-1.497-.165-.431-.41-.765-.735-1.004-.325-.242-.726-.363-1.203-.363-.498 0-.912.128-1.243.383a2.293 2.293 0 0 0-.741 1.029 4.093 4.093 0 0 0-.244 1.452c0 .543.083 1.037.249 1.481.169.441.417.792.746 1.054.331.259.742.388 1.233.388Zm10.301-2.227v-4.514h1.173V142h-1.173v-1.293h-.08a2.505 2.505 0 0 1-.835.99c-.378.268-.855.402-1.432.402-.477 0-.901-.104-1.273-.313a2.192 2.192 0 0 1-.875-.954c-.212-.428-.318-.966-.318-1.616v-4.852h1.173v4.772c0 .557.156 1.001.468 1.333.315.331.716.497 1.203.497a2 2 0 0 0 .89-.224c.305-.149.56-.378.765-.686.209-.308.314-.701.314-1.178Zm6.524 3.281c-.736 0-1.371-.162-1.904-.487a3.266 3.266 0 0 1-1.228-1.372c-.286-.59-.428-1.276-.428-2.059 0-.782.142-1.471.428-2.068.288-.6.689-1.067 1.203-1.402.517-.338 1.12-.507 1.809-.507.398 0 .791.066 1.179.199.387.133.74.348 1.059.646.318.295.571.686.76 1.174.189.487.284 1.087.284 1.799v.498h-5.887v-1.015h4.693c0-.431-.086-.815-.258-1.153a1.943 1.943 0 0 0-.726-.8c-.312-.196-.679-.294-1.104-.294-.467 0-.871.116-1.213.348a2.288 2.288 0 0 0-.78.895 2.62 2.62 0 0 0-.274 1.183v.676c0 .577.1 1.066.299 1.467.202.398.482.701.84.91.358.205.774.308 1.248.308.308 0 .586-.043.835-.129.252-.09.469-.222.651-.398a1.82 1.82 0 0 0 .423-.666l1.133.318c-.119.385-.32.723-.601 1.014-.282.289-.63.514-1.044.676-.415.16-.88.239-1.397.239Zm10.355-6.085-1.054.298a1.954 1.954 0 0 0-.293-.512 1.43 1.43 0 0 0-.517-.418c-.219-.109-.499-.164-.84-.164-.467 0-.857.108-1.168.324-.309.212-.463.482-.463.81 0 .292.106.522.318.691.213.169.544.31.995.423l1.133.278c.683.166 1.192.419 1.527.761.334.338.502.774.502 1.307 0 .438-.126.829-.378 1.173-.249.345-.597.617-1.044.816-.448.199-.968.298-1.561.298-.779 0-1.424-.169-1.934-.507-.511-.338-.834-.832-.97-1.482l1.114-.278c.106.411.307.719.601.925.299.205.688.308 1.169.308.547 0 .981-.116 1.302-.348.325-.235.488-.517.488-.845a.887.887 0 0 0-.279-.666c-.185-.183-.47-.319-.855-.408l-1.273-.298c-.699-.166-1.213-.423-1.541-.771-.325-.351-.487-.79-.487-1.317 0-.431.121-.812.363-1.144a2.47 2.47 0 0 1 .999-.78 3.508 3.508 0 0 1 1.442-.284c.756 0 1.349.166 1.78.497.434.332.742.769.924 1.313Zm5.227-1.71v.994h-3.958v-.994h3.958Zm-2.804-1.83h1.173v7.278c0 .332.048.581.144.746.1.163.226.272.378.328.156.053.32.08.492.08.13 0 .236-.007.319-.02l.198-.04.239 1.054a2.469 2.469 0 0 1-.875.139c-.331 0-.656-.071-.974-.213a1.94 1.94 0 0 1-.786-.652c-.205-.291-.308-.659-.308-1.103v-7.597Zm9.841 3.54-1.054.298a1.954 1.954 0 0 0-.293-.512 1.43 1.43 0 0 0-.517-.418c-.219-.109-.499-.164-.84-.164-.468 0-.857.108-1.169.324-.308.212-.462.482-.462.81 0 .292.106.522.318.691.212.169.544.31.994.423l1.134.278c.683.166 1.191.419 1.526.761.335.338.502.774.502 1.307 0 .438-.126.829-.378 1.173-.248.345-.596.617-1.044.816-.447.199-.967.298-1.561.298-.779 0-1.423-.169-1.934-.507-.51-.338-.833-.832-.969-1.482l1.114-.278c.106.411.306.719.601.925.298.205.688.308 1.168.308.547 0 .982-.116 1.303-.348.325-.235.487-.517.487-.845a.89.89 0 0 0-.278-.666c-.186-.183-.471-.319-.855-.408l-1.273-.298c-.699-.166-1.213-.423-1.541-.771-.325-.351-.487-.79-.487-1.317 0-.431.121-.812.363-1.144a2.47 2.47 0 0 1 .999-.78 3.508 3.508 0 0 1 1.442-.284c.755 0 1.349.166 1.779.497.435.332.743.769.925 1.313Z"/><rect width="21" height="13" x="109" y="85.5" fill="#7E71B7" rx="6.5"/><path fill="#fff" d="M116.554 93.614V89.59h1.017v4.023h-1.017Zm-1.503-1.503v-1.017h4.023v1.017h-4.023Zm5.038 2.389v-.886l2.071-1.918a7.74 7.74 0 0 0 .443-.46 1.8 1.8 0 0 0 .276-.4 1 1 0 0 0 .093-.43.77.77 0 0 0-.434-.727 1 1 0 0 0-.458-.102.963.963 0 0 0-.466.108.74.74 0 0 0-.306.31 1.004 1.004 0 0 0-.108.48h-1.168c0-.381.086-.712.258-.992a1.73 1.73 0 0 1 .725-.65c.311-.154.668-.23 1.074-.23.416 0 .779.073 1.088.22.31.147.552.35.724.609.173.26.259.557.259.892 0 .22-.044.436-.131.65-.085.214-.238.452-.457.713-.22.26-.53.572-.929.935l-.85.832v.04h2.444V94.5h-4.148Z"/><path fill="#B0B0B0" d="M13.758 165.818h1.472l3.46 8.452h.12l3.46-8.452h1.471V176h-1.153v-7.736h-.1L19.307 176h-1.114l-3.182-7.736h-.1V176h-1.153v-10.182Zm14.544 10.361c-.484 0-.924-.091-1.318-.273a2.265 2.265 0 0 1-.94-.801c-.232-.351-.348-.775-.348-1.273 0-.437.087-.792.259-1.064.172-.275.403-.49.691-.646a3.62 3.62 0 0 1 .954-.348c.352-.079.705-.142 1.06-.189.463-.059.84-.104 1.128-.134.292-.033.504-.088.636-.164.136-.076.204-.209.204-.398v-.04c0-.49-.134-.871-.402-1.143-.266-.272-.668-.408-1.209-.408-.56 0-.999.123-1.317.368-.318.245-.542.507-.671.786l-1.114-.398c.199-.464.464-.825.796-1.084a2.977 2.977 0 0 1 1.093-.547 4.544 4.544 0 0 1 1.174-.159c.245 0 .527.03.845.09.321.056.631.174.93.353.301.179.551.449.75.81.2.361.299.845.299 1.452V176h-1.174v-1.034h-.06a2.059 2.059 0 0 1-.397.532c-.186.189-.433.35-.741.482-.308.133-.684.199-1.128.199Zm.178-1.054c.465 0 .856-.091 1.174-.273.321-.183.563-.418.726-.706.165-.289.248-.592.248-.91v-1.074c-.05.06-.159.114-.328.164a5.527 5.527 0 0 1-.577.124 29 29 0 0 1-.631.09c-.202.023-.366.043-.492.059-.305.04-.59.105-.855.194a1.47 1.47 0 0 0-.637.393c-.159.172-.238.408-.238.706 0 .408.15.716.452.925.305.205.691.308 1.159.308Zm5.463.875v-7.636h1.134v1.153h.08c.138-.378.39-.684.755-.92a2.227 2.227 0 0 1 1.233-.353c.086 0 .194.002.323.005a5.3 5.3 0 0 1 .293.015v1.193c-.04-.01-.13-.024-.273-.044a2.605 2.605 0 0 0-.443-.035c-.37 0-.702.078-.994.234a1.756 1.756 0 0 0-.686.636 1.714 1.714 0 0 0-.249.92V176h-1.173Zm9.127 0v-.895l3.36-3.679c.395-.431.72-.805.975-1.123.255-.322.444-.624.567-.905.125-.285.188-.584.188-.895 0-.358-.086-.668-.258-.93a1.671 1.671 0 0 0-.696-.606 2.25 2.25 0 0 0-.994-.214c-.392 0-.733.081-1.025.243a1.68 1.68 0 0 0-.67.672 2.1 2.1 0 0 0-.234 1.014h-1.174c0-.597.138-1.12.413-1.571.275-.451.65-.802 1.124-1.054a3.386 3.386 0 0 1 1.605-.378c.597 0 1.126.126 1.586.378.461.252.822.591 1.084 1.019.262.428.393.903.393 1.427 0 .374-.068.741-.204 1.099-.133.354-.364.75-.696 1.188-.328.434-.784.964-1.367 1.591l-2.287 2.446v.079h4.733V176H43.07Zm12.056-10.182V176h-1.233v-8.889h-.06l-2.486 1.65v-1.252l2.546-1.691h1.233Zm326.508 0V176h-1.233v-8.889h-.06l-2.486 1.65v-1.252l2.546-1.691h1.233ZM384.562 176v-.895l3.361-3.679c.394-.431.719-.805.974-1.123.255-.322.444-.624.567-.905.126-.285.189-.584.189-.895 0-.358-.086-.668-.259-.93a1.67 1.67 0 0 0-.696-.606 2.248 2.248 0 0 0-.994-.214c-.391 0-.733.081-1.024.243-.289.16-.512.383-.671.672a2.097 2.097 0 0 0-.234 1.014h-1.173c0-.597.137-1.12.412-1.571.275-.451.65-.802 1.124-1.054a3.384 3.384 0 0 1 1.606-.378c.596 0 1.125.126 1.586.378.46.252.822.591 1.083 1.019.262.428.393.903.393 1.427 0 .374-.068.741-.204 1.099-.132.354-.364.75-.696 1.188-.328.434-.784.964-1.367 1.591l-2.287 2.446v.079h4.733V176h-6.423Z"/><path stroke="#B0B0B0" stroke-linejoin="round" d="M397 171c0-3.967 3.69-7 8-7 4.31 0 8 3.033 8 7s-3.69 7-8 7a9.186 9.186 0 0 1-1.504-.123 5.98 5.98 0 0 1-3.935 1.107.749.749 0 0 1-.584-1.143 3.47 3.47 0 0 0 .522-1.756c-1.521-1.26-2.499-3.061-2.499-5.085Z" clip-rule="evenodd"/><g stroke="#B0B0B0" stroke-linecap="round" stroke-linejoin="round" stroke-opacity=".7" stroke-width="1.25" clip-path="url(#a)"><path d="M434.499 178.417a7.917 7.917 0 0 0 7.916-7.917 7.917 7.917 0 1 0-7.916 7.917Z"/><path d="M434.5 171.292a2.375 2.375 0 1 0 0-4.75 2.375 2.375 0 0 0 0 4.75Zm-3.957 6.065v-1.315a1.584 1.584 0 0 1 1.583-1.584h4.75a1.584 1.584 0 0 1 1.584 1.584v1.315"/></g><rect width="91" height="28" x="355" y="10" fill="#8772C6" fill-opacity=".1" rx="14"/><rect width="90" height="27" x="355.5" y="10.5" stroke="#8772C6" stroke-opacity=".25" rx="13.5"/><circle cx="371.5" cy="23.5" r="7" fill="#272337" stroke="#8772C6"/><path fill="#8772C6" d="M385.233 29V18.818h3.44c.799 0 1.452.144 1.959.433.511.285.888.67 1.134 1.158.245.487.368 1.03.368 1.63 0 .6-.123 1.146-.368 1.636a2.737 2.737 0 0 1-1.124 1.174c-.507.288-1.157.432-1.949.432h-2.466v-1.093h2.426c.547 0 .986-.095 1.318-.284.331-.189.572-.444.721-.765.152-.325.228-.692.228-1.1 0-.407-.076-.772-.228-1.093a1.63 1.63 0 0 0-.726-.756c-.335-.185-.779-.278-1.332-.278h-2.168V29h-1.233Zm9.901-10.182V29h-1.173V18.818h1.173Zm4.396 10.361a3.1 3.1 0 0 1-1.317-.273 2.258 2.258 0 0 1-.94-.8c-.232-.352-.348-.777-.348-1.274 0-.437.086-.792.258-1.064.173-.275.403-.49.691-.646.289-.156.607-.272.955-.348.351-.08.704-.142 1.059-.189.464-.06.84-.104 1.129-.134.291-.033.503-.088.636-.164.136-.076.204-.209.204-.398v-.04c0-.49-.135-.871-.403-1.143-.265-.272-.668-.408-1.208-.408-.56 0-.999.123-1.318.368-.318.245-.541.507-.671.786l-1.113-.398c.199-.464.464-.825.795-1.084a2.978 2.978 0 0 1 1.094-.547 4.546 4.546 0 0 1 1.173-.159c.245 0 .527.03.845.09.322.056.632.174.93.353.302.179.552.449.751.81.199.361.298.845.298 1.452V29h-1.173v-1.034h-.06a2.047 2.047 0 0 1-.398.532c-.185.189-.432.35-.74.482-.309.133-.685.199-1.129.199Zm.179-1.054c.464 0 .855-.091 1.173-.273a1.863 1.863 0 0 0 .975-1.616v-1.074c-.05.06-.159.114-.328.164a5.554 5.554 0 0 1-.577.124 26.457 26.457 0 0 1-1.124.15c-.305.04-.59.104-.855.193a1.47 1.47 0 0 0-.636.393c-.159.172-.239.408-.239.706 0 .408.151.716.453.925.305.205.691.308 1.158.308Zm6.636-3.719V29h-1.173v-7.636h1.133v1.193h.099c.179-.388.451-.7.816-.935.364-.238.835-.358 1.412-.358.517 0 .969.106 1.357.318.388.21.689.527.905.955.215.424.323.961.323 1.61V29h-1.173v-4.773c0-.6-.156-1.067-.468-1.402-.311-.338-.739-.507-1.282-.507-.375 0-.71.081-1.005.244-.291.162-.522.4-.691.71-.169.312-.253.69-.253 1.134Zm8.189 0V29h-1.173v-7.636h1.133v1.193h.1c.179-.388.451-.7.815-.935.365-.238.835-.358 1.412-.358.517 0 .97.106 1.357.318.388.21.69.527.905.955.216.424.323.961.323 1.61V29h-1.173v-4.773c0-.6-.156-1.067-.467-1.402-.312-.338-.739-.507-1.283-.507-.374 0-.709.081-1.004.244a1.74 1.74 0 0 0-.691.71c-.169.312-.254.69-.254 1.134Zm10.218 4.753c-.736 0-1.37-.162-1.904-.487a3.27 3.27 0 0 1-1.228-1.372c-.285-.59-.428-1.276-.428-2.059 0-.782.143-1.471.428-2.068.288-.6.689-1.067 1.203-1.402.517-.338 1.12-.507 1.81-.507.398 0 .79.067 1.178.2.388.132.741.347 1.059.645.318.295.572.686.761 1.174.189.487.283 1.087.283 1.8v.497h-5.886v-1.015h4.693c0-.43-.086-.815-.259-1.153a1.952 1.952 0 0 0-.725-.8c-.312-.196-.68-.294-1.104-.294-.468 0-.872.116-1.213.348a2.289 2.289 0 0 0-.781.895 2.632 2.632 0 0 0-.273 1.183v.677c0 .576.099 1.065.298 1.466.202.398.482.701.84.91.358.205.774.308 1.248.308.308 0 .587-.043.835-.13.252-.089.469-.221.652-.397.182-.179.323-.4.422-.666l1.134.318a2.51 2.51 0 0 1-.602 1.014c-.282.289-.63.514-1.044.677-.414.159-.88.238-1.397.238Zm7.83 0c-.636 0-1.198-.16-1.685-.482-.487-.325-.868-.782-1.143-1.372-.276-.594-.413-1.295-.413-2.103 0-.802.137-1.498.413-2.088.275-.59.657-1.046 1.148-1.368.491-.321 1.057-.482 1.7-.482.497 0 .89.083 1.179.249.291.162.513.348.666.557.156.205.276.374.363.507h.099v-3.759h1.173V29h-1.133v-1.173h-.139a7.881 7.881 0 0 1-.368.527 2.182 2.182 0 0 1-.681.562c-.295.162-.688.243-1.179.243Zm.159-1.054c.471 0 .869-.122 1.194-.368.324-.248.571-.591.74-1.029.169-.44.254-.95.254-1.526 0-.57-.083-1.07-.249-1.497-.165-.43-.411-.765-.735-1.004-.325-.242-.726-.363-1.204-.363-.497 0-.911.128-1.242.383-.329.252-.575.595-.741 1.03-.163.43-.244.914-.244 1.45 0 .544.083 1.038.249 1.482.169.441.417.793.746 1.054.331.259.742.388 1.232.388Z"/><defs><clipPath id="a"><path fill="#fff" d="M425 161h19v19h-19z"/></clipPath></defs></svg>