<svg xmlns="http://www.w3.org/2000/svg" width="456" height="161" fill="none"><path fill="#15151E" d="M0 0h456v161H0z"/><rect width="455" height="160" x=".5" y=".5" stroke="#24252B" rx="4.5"/><path stroke="#9B9AA1" stroke-linecap="round" stroke-linejoin="round" stroke-miterlimit="10" stroke-width="2" d="m21 22.5-3.704-3.674a1.135 1.135 0 0 0-1.591 0L12 22.5"/><path fill="#9B9AA1" d="M27.656 23.296V22.23l3.772-5.957h.839v1.568h-.533l-2.697 4.27v.068h5.169v1.117h-6.55ZM31.794 25v-2.028l.009-.486v-6.213h1.248V25h-1.257Zm6.778.12a3.287 3.287 0 0 1-1.44-.308 2.617 2.617 0 0 1-1.015-.852 2.25 2.25 0 0 1-.405-1.236h1.279c.031.375.197.684.498.925.302.242.662.362 1.083.362.335 0 .632-.076.89-.23a1.65 1.65 0 0 0 .614-.643c.15-.273.226-.584.226-.934 0-.355-.077-.671-.23-.95a1.699 1.699 0 0 0-.635-.656 1.794 1.794 0 0 0-.92-.243c-.265 0-.53.046-.798.136-.267.091-.483.21-.647.358l-1.206-.178.49-4.398h4.798v1.129h-3.703l-.277 2.442h.051c.17-.165.396-.303.678-.414.284-.11.588-.166.912-.166a2.671 2.671 0 0 1 2.403 1.415c.241.435.36.935.358 1.5a2.917 2.917 0 0 1-.383 1.513 2.781 2.781 0 0 1-1.066 1.048c-.452.253-.97.38-1.555.38Z"/><rect width="177" height="16" x="12" y="39" fill="#797979" fill-opacity=".25" rx="4"/><rect width="225" height="16" x="12" y="65" fill="#797979" fill-opacity=".1" rx="4"/><rect width="54" height="27" x="12.5" y="91.5" stroke="#37363D" rx="13.5"/><circle cx="24" cy="105" r="4" fill="#FC3637"/><path fill="#fff" d="M34.233 110V99.818h3.56c.709 0 1.294.123 1.755.368.46.242.803.568 1.029.979.225.408.338.861.338 1.358 0 .437-.078.798-.234 1.084a1.82 1.82 0 0 1-.606.676 2.791 2.791 0 0 1-.81.368v.099c.31.02.624.129.939.328.315.199.578.484.79.855.212.371.319.826.319 1.362 0 .511-.117.97-.349 1.378-.231.407-.598.73-1.098.969-.5.239-1.152.358-1.954.358h-3.679Zm1.233-1.094h2.446c.805 0 1.377-.156 1.715-.467a1.5 1.5 0 0 0 .512-1.144c0-.344-.088-.662-.263-.954a1.91 1.91 0 0 0-.751-.706c-.325-.179-.71-.269-1.153-.269h-2.506v3.54Zm0-4.613h2.287c.371 0 .706-.073 1.004-.219.302-.146.54-.351.716-.617.179-.265.269-.576.269-.934a1.55 1.55 0 0 0-.468-1.139c-.311-.315-.805-.472-1.481-.472h-2.327v3.381Zm12.526 2.585v-4.514h1.173V110h-1.173v-1.293h-.08a2.508 2.508 0 0 1-.835.99c-.378.268-.855.402-1.432.402-.477 0-.901-.104-1.273-.313a2.191 2.191 0 0 1-.874-.954c-.213-.428-.319-.966-.319-1.616v-4.852h1.174v4.772c0 .557.155 1.001.467 1.333.315.331.716.497 1.203.497a2 2 0 0 0 .89-.224 1.94 1.94 0 0 0 .766-.686c.208-.308.313-.701.313-1.178Zm6.405 6.145c-.567 0-1.054-.073-1.462-.219a3.098 3.098 0 0 1-1.02-.567 3.085 3.085 0 0 1-.64-.746l.934-.656a7.2 7.2 0 0 0 .403.477c.162.183.384.34.666.473.285.136.658.204 1.119.204.616 0 1.125-.15 1.526-.448.4-.298.601-.765.601-1.402v-1.551h-.1a6.274 6.274 0 0 1-.367.517 2.089 2.089 0 0 1-.676.542c-.292.156-.686.234-1.183.234a3.18 3.18 0 0 1-1.66-.438c-.488-.291-.874-.716-1.16-1.273-.281-.556-.422-1.233-.422-2.028 0-.782.138-1.463.413-2.043.275-.584.658-1.034 1.148-1.353.49-.321 1.057-.482 1.7-.482.498 0 .892.083 1.184.249.295.162.52.348.676.557.159.205.282.374.368.507h.12v-1.213h1.133v7.855c0 .656-.15 1.19-.448 1.601a2.547 2.547 0 0 1-1.193.909 4.493 4.493 0 0 1-1.66.294Zm-.04-4.196c.47 0 .868-.108 1.193-.323.325-.216.572-.526.74-.93.17-.404.254-.888.254-1.452 0-.55-.083-1.036-.248-1.457a2.191 2.191 0 0 0-.736-.989c-.325-.239-.726-.358-1.203-.358-.497 0-.912.126-1.243.378-.328.252-.575.59-.741 1.014a3.92 3.92 0 0 0-.244 1.412c0 .53.083.999.249 1.407.17.404.418.723.746.955.331.228.742.343 1.233.343Z"/><rect width="110" height="27" x="71.5" y="91.5" stroke="#37363D" rx="13.5"/><path fill="#fff" d="M80.233 110V99.818h3.44c.8 0 1.452.144 1.96.433.51.285.887.671 1.133 1.158.245.487.367 1.031.367 1.631a3.6 3.6 0 0 1-.367 1.635 2.735 2.735 0 0 1-1.124 1.174c-.507.288-1.157.432-1.949.432h-2.466v-1.093h2.426c.547 0 .986-.095 1.318-.284a1.69 1.69 0 0 0 .72-.766c.153-.324.23-.691.23-1.098 0-.408-.077-.772-.23-1.094a1.638 1.638 0 0 0-.725-.756c-.335-.185-.779-.278-1.332-.278h-2.168V110h-1.233Zm8.728 0v-7.636h1.133v1.153h.08c.139-.378.39-.684.755-.92a2.227 2.227 0 0 1 1.233-.353c.087 0 .194.002.323.005.13.004.228.009.294.015v1.193a3.665 3.665 0 0 0-.274-.044 2.605 2.605 0 0 0-.442-.035 2.08 2.08 0 0 0-.995.234 1.713 1.713 0 0 0-.935 1.556V110h-1.172Zm8.078.159c-.689 0-1.294-.164-1.814-.492a3.342 3.342 0 0 1-1.213-1.377c-.289-.59-.433-1.28-.433-2.068 0-.796.144-1.49.433-2.084a3.344 3.344 0 0 1 1.213-1.382c.52-.328 1.125-.492 1.814-.492.69 0 1.293.164 1.81.492.52.329.925.789 1.213 1.382.292.594.438 1.288.438 2.084 0 .788-.146 1.478-.438 2.068a3.296 3.296 0 0 1-1.213 1.377c-.517.328-1.12.492-1.81.492Zm0-1.054c.524 0 .955-.134 1.293-.403.338-.268.588-.621.75-1.059a4.05 4.05 0 0 0 .244-1.421c0-.511-.08-.986-.243-1.427a2.405 2.405 0 0 0-.751-1.069c-.338-.272-.769-.408-1.293-.408-.523 0-.954.136-1.292.408a2.405 2.405 0 0 0-.75 1.069 4.095 4.095 0 0 0-.245 1.427c0 .51.082.984.244 1.421.163.438.413.791.75 1.059.339.269.77.403 1.293.403Zm8.135 1.054c-.636 0-1.198-.161-1.685-.482-.487-.325-.869-.782-1.144-1.372-.275-.594-.412-1.295-.412-2.103 0-.802.137-1.498.412-2.088.275-.59.658-1.046 1.149-1.368.49-.321 1.057-.482 1.7-.482.497 0 .89.083 1.178.249.292.162.514.348.667.557.155.205.276.374.362.507h.1v-3.759h1.173V110h-1.133v-1.173h-.14a7.456 7.456 0 0 1-.367.527c-.16.208-.387.396-.682.561-.295.163-.687.244-1.178.244Zm.159-1.054c.471 0 .869-.123 1.193-.368.325-.248.572-.591.741-1.029.169-.441.254-.949.254-1.526 0-.57-.083-1.069-.249-1.497-.166-.431-.411-.765-.736-1.004-.324-.242-.725-.363-1.203-.363-.497 0-.911.128-1.243.383a2.287 2.287 0 0 0-.74 1.029 4.08 4.08 0 0 0-.244 1.452c0 .543.083 1.037.249 1.481.169.441.417.792.745 1.054.332.259.743.388 1.233.388Zm10.465-2.227v-4.514h1.174V110h-1.174v-1.293h-.079a2.505 2.505 0 0 1-.835.99c-.378.268-.855.402-1.432.402a2.55 2.55 0 0 1-1.273-.313 2.192 2.192 0 0 1-.875-.954c-.212-.428-.318-.966-.318-1.616v-4.852h1.173v4.772c0 .557.156 1.001.468 1.333.314.331.716.497 1.203.497.291 0 .588-.075.89-.224.305-.149.56-.378.765-.686.209-.308.313-.701.313-1.178Zm6.425 3.281c-.716 0-1.332-.169-1.849-.507a3.312 3.312 0 0 1-1.194-1.397c-.278-.593-.417-1.271-.417-2.033 0-.776.142-1.46.427-2.054a3.394 3.394 0 0 1 1.203-1.397c.518-.338 1.121-.507 1.81-.507.537 0 1.021.1 1.452.298.431.199.784.478 1.059.836a2.6 2.6 0 0 1 .512 1.253h-1.173a1.824 1.824 0 0 0-.597-.925c-.305-.272-.716-.408-1.233-.408a2.06 2.06 0 0 0-1.203.358c-.341.235-.608.569-.801.999-.188.428-.283.93-.283 1.507 0 .59.093 1.104.278 1.541.189.438.455.777.796 1.019.345.242.749.363 1.213.363.305 0 .582-.053.83-.159.249-.106.459-.258.632-.457.172-.199.295-.438.368-.716h1.173a2.72 2.72 0 0 1-.492 1.218 2.756 2.756 0 0 1-1.029.855c-.425.209-.919.313-1.482.313Zm8.039-7.795v.994h-3.957v-.994h3.957Zm-2.804-1.83h1.173v7.278c0 .332.048.581.145.746a.74.74 0 0 0 .377.328c.156.053.32.08.493.08.129 0 .235-.007.318-.02l.199-.04.238 1.054c-.079.03-.19.06-.333.09a2.463 2.463 0 0 1-.542.049c-.331 0-.656-.071-.974-.213a1.94 1.94 0 0 1-.786-.652c-.205-.291-.308-.659-.308-1.103v-7.597Zm16.739-.716V110h-1.193l-5.548-7.994h-.099V110h-1.233V99.818h1.193l5.568 8.014h.099v-8.014h1.213Zm4.556 10.361c-.484 0-.923-.091-1.318-.273a2.266 2.266 0 0 1-.939-.801c-.232-.351-.348-.775-.348-1.273 0-.437.086-.792.258-1.064.172-.275.403-.49.691-.646.288-.156.607-.272.955-.348.351-.079.704-.142 1.059-.189.464-.059.84-.104 1.128-.134.292-.033.504-.088.637-.164.135-.076.203-.209.203-.398v-.04c0-.49-.134-.871-.402-1.143-.265-.272-.668-.408-1.208-.408-.561 0-1 .123-1.318.368-.318.245-.542.507-.671.786l-1.114-.398c.199-.464.464-.825.796-1.084a2.981 2.981 0 0 1 1.094-.547 4.534 4.534 0 0 1 1.173-.159c.245 0 .527.03.845.09.321.056.631.174.93.353.301.179.552.449.75.81.199.361.299.845.299 1.452V110h-1.174v-1.034h-.059c-.08.166-.212.343-.398.532-.186.189-.433.35-.741.482-.308.133-.684.199-1.128.199Zm.179-1.054c.464 0 .855-.091 1.173-.273.321-.183.563-.418.726-.706.166-.289.248-.592.248-.91v-1.074c-.049.06-.159.114-.328.164a5.51 5.51 0 0 1-.576.124c-.216.033-.426.063-.632.09-.202.023-.366.043-.492.059-.305.04-.59.105-.855.194a1.475 1.475 0 0 0-.637.393c-.159.172-.238.408-.238.706 0 .408.151.716.452.925.305.205.691.308 1.159.308Zm5.462.875v-7.636h1.134v1.193h.099a1.92 1.92 0 0 1 .771-.95c.354-.228.78-.343 1.277-.343.504 0 .923.115 1.258.343.338.226.602.542.791.95h.079c.196-.395.489-.708.88-.94.391-.235.86-.353 1.407-.353.683 0 1.241.214 1.676.642.434.424.651 1.085.651 1.983V110h-1.173v-5.111c0-.563-.155-.966-.463-1.208a1.71 1.71 0 0 0-1.089-.363c-.536 0-.952.163-1.247.487-.295.322-.443.73-.443 1.223V110h-1.193v-5.23c0-.434-.141-.784-.423-1.049-.281-.269-.644-.403-1.088-.403-.305 0-.59.081-.856.244a1.85 1.85 0 0 0-.636.676 1.997 1.997 0 0 0-.239.989V110h-1.173Zm15.37.159c-.736 0-1.371-.162-1.904-.487a3.266 3.266 0 0 1-1.228-1.372c-.285-.59-.428-1.276-.428-2.059 0-.782.143-1.471.428-2.068.288-.6.689-1.067 1.203-1.402.517-.338 1.12-.507 1.81-.507.397 0 .79.066 1.178.199.388.133.741.348 1.059.646.318.295.571.686.76 1.174.189.487.284 1.087.284 1.799v.498h-5.887v-1.015h4.694c0-.431-.087-.815-.259-1.153a1.943 1.943 0 0 0-.726-.8c-.311-.196-.679-.294-1.103-.294-.468 0-.872.116-1.214.348a2.288 2.288 0 0 0-.78.895 2.632 2.632 0 0 0-.274 1.183v.676c0 .577.1 1.066.299 1.467.202.398.482.701.84.91.358.205.774.308 1.248.308.308 0 .586-.043.835-.129.252-.09.469-.222.651-.398.183-.179.324-.401.423-.666l1.133.318a2.497 2.497 0 0 1-.601 1.014c-.282.289-.63.514-1.044.676-.414.16-.88.239-1.397.239Z"/><rect width="97" height="27" x="186.5" y="91.5" stroke="#37363D" rx="13.5"/><path fill="#fff" d="M195.233 110V99.818h3.56c.709 0 1.294.123 1.755.368.46.242.803.568 1.029.979.225.408.338.861.338 1.358 0 .437-.078.798-.234 1.084-.152.285-.355.51-.606.676a2.796 2.796 0 0 1-.811.368v.099c.312.02.625.129.94.328.315.199.578.484.79.855.212.371.318.826.318 1.362 0 .511-.116.97-.348 1.378-.232.407-.598.73-1.098.969-.501.239-1.152.358-1.954.358h-3.679Zm1.233-1.094h2.446c.805 0 1.377-.156 1.715-.467.342-.315.512-.696.512-1.144 0-.344-.088-.662-.263-.954a1.91 1.91 0 0 0-.751-.706c-.325-.179-.709-.269-1.153-.269h-2.506v3.54Zm0-4.613h2.287c.371 0 .706-.073 1.004-.219.302-.146.54-.351.716-.617.179-.265.268-.576.268-.934 0-.448-.155-.827-.467-1.139-.311-.315-.805-.472-1.481-.472h-2.327v3.381Zm12.526 2.585v-4.514h1.173V110h-1.173v-1.293h-.08a2.505 2.505 0 0 1-.835.99c-.378.268-.855.402-1.432.402-.477 0-.901-.104-1.272-.313-.372-.212-.663-.53-.875-.954-.213-.428-.319-.966-.319-1.616v-4.852h1.174v4.772c0 .557.155 1.001.467 1.333.315.331.716.497 1.203.497a2 2 0 0 0 .89-.224c.305-.149.56-.378.766-.686.208-.308.313-.701.313-1.178Zm6.404 6.145c-.566 0-1.053-.073-1.461-.219a3.086 3.086 0 0 1-1.661-1.313l.935-.656c.106.139.24.299.403.477.162.183.384.34.666.473.285.136.658.204 1.118.204.617 0 1.126-.15 1.527-.448.401-.298.601-.765.601-1.402v-1.551h-.099a6.255 6.255 0 0 1-.368.517 2.09 2.09 0 0 1-.676.542c-.292.156-.686.234-1.183.234-.617 0-1.17-.146-1.661-.438-.487-.291-.873-.716-1.158-1.273-.282-.556-.423-1.233-.423-2.028 0-.782.138-1.463.413-2.043.275-.584.658-1.034 1.148-1.353.491-.321 1.058-.482 1.701-.482.497 0 .891.083 1.183.249.295.162.52.348.676.557.159.205.282.374.368.507h.119v-1.213h1.134v7.855c0 .656-.15 1.19-.448 1.601a2.549 2.549 0 0 1-1.193.909 4.494 4.494 0 0 1-1.661.294Zm-.039-4.196c.47 0 .868-.108 1.193-.323.325-.216.572-.526.741-.93.169-.404.253-.888.253-1.452 0-.55-.083-1.036-.248-1.457a2.192 2.192 0 0 0-.736-.989c-.325-.239-.726-.358-1.203-.358-.497 0-.912.126-1.243.378-.328.252-.575.59-.741 1.014a3.93 3.93 0 0 0-.244 1.412c0 .53.083.999.249 1.407.169.404.418.723.746.955.331.228.742.343 1.233.343Zm9.585 1.173V99.818h3.44c.796 0 1.449.136 1.959.408.511.268.888.638 1.134 1.109.245.47.368 1.005.368 1.605 0 .6-.123 1.132-.368 1.596-.246.464-.622.829-1.129 1.094-.507.262-1.155.393-1.944.393h-2.784v-1.114h2.744c.544 0 .981-.079 1.313-.239.335-.159.577-.384.726-.676.152-.295.228-.646.228-1.054a2.37 2.37 0 0 0-.228-1.069 1.567 1.567 0 0 0-.731-.706c-.335-.169-.777-.253-1.327-.253h-2.168V110h-1.233Zm4.793-4.574L232.24 110h-1.432l-2.465-4.574h1.392Zm7.123 4.733c-.736 0-1.371-.162-1.905-.487a3.28 3.28 0 0 1-1.228-1.372c-.285-.59-.427-1.276-.427-2.059 0-.782.142-1.471.427-2.068.289-.6.69-1.067 1.204-1.402.517-.338 1.12-.507 1.809-.507.398 0 .791.066 1.179.199.387.133.74.348 1.058.646.319.295.572.686.761 1.174.189.487.284 1.087.284 1.799v.498h-5.887v-1.015h4.693c0-.431-.086-.815-.258-1.153a1.943 1.943 0 0 0-.726-.8c-.312-.196-.679-.294-1.104-.294-.467 0-.871.116-1.213.348a2.288 2.288 0 0 0-.78.895 2.62 2.62 0 0 0-.274 1.183v.676c0 .577.1 1.066.299 1.467.202.398.482.701.84.91.358.205.774.308 1.248.308.308 0 .586-.043.835-.129.252-.09.469-.222.651-.398a1.82 1.82 0 0 0 .423-.666l1.133.318c-.119.385-.32.723-.601 1.014-.282.289-.63.514-1.044.676-.415.16-.88.239-1.397.239Zm4.946 2.705v-10.5h1.134v1.213h.139c.086-.133.206-.302.358-.507.156-.209.378-.395.666-.557.292-.166.686-.249 1.183-.249.643 0 1.21.161 1.701.482.49.322.873.778 1.148 1.368.275.59.413 1.286.413 2.088 0 .808-.138 1.509-.413 2.103-.275.59-.656 1.047-1.143 1.372-.488.321-1.049.482-1.686.482-.49 0-.883-.081-1.178-.244a2.182 2.182 0 0 1-.681-.561 7.523 7.523 0 0 1-.368-.527h-.099v4.037h-1.174Zm1.154-6.682c0 .577.084 1.085.253 1.526.169.438.416.781.741 1.029.325.245.723.368 1.193.368.491 0 .9-.129 1.228-.388a2.37 2.37 0 0 0 .746-1.054c.169-.444.254-.938.254-1.481 0-.537-.083-1.021-.249-1.452a2.238 2.238 0 0 0-.741-1.029c-.328-.255-.741-.383-1.238-.383-.477 0-.878.121-1.203.363-.325.239-.57.573-.736 1.004-.165.428-.248.927-.248 1.497Zm10.48 3.977c-.69 0-1.294-.164-1.815-.492a3.345 3.345 0 0 1-1.213-1.377c-.288-.59-.432-1.28-.432-2.068 0-.796.144-1.49.432-2.084a3.347 3.347 0 0 1 1.213-1.382c.521-.328 1.125-.492 1.815-.492.689 0 1.292.164 1.81.492.52.329.924.789 1.213 1.382.291.594.437 1.288.437 2.084 0 .788-.146 1.478-.437 2.068a3.303 3.303 0 0 1-1.213 1.377c-.518.328-1.121.492-1.81.492Zm0-1.054c.524 0 .954-.134 1.292-.403a2.36 2.36 0 0 0 .751-1.059c.163-.437.244-.911.244-1.421 0-.511-.081-.986-.244-1.427a2.395 2.395 0 0 0-.751-1.069c-.338-.272-.768-.408-1.292-.408s-.955.136-1.293.408a2.401 2.401 0 0 0-.75 1.069 4.081 4.081 0 0 0-.244 1.427c0 .51.081.984.244 1.421.162.438.412.791.75 1.059.338.269.769.403 1.293.403Zm5.251.895v-7.636h1.134v1.153h.079c.139-.378.391-.684.756-.92a2.224 2.224 0 0 1 1.233-.353c.086 0 .194.002.323.005.129.004.227.009.293.015v1.193a3.606 3.606 0 0 0-.273-.044 2.608 2.608 0 0 0-.443-.035c-.371 0-.702.078-.994.234a1.712 1.712 0 0 0-.935 1.556V110h-1.173Zm9.009-7.636v.994h-3.958v-.994h3.958Zm-2.804-1.83h1.173v7.278c0 .332.048.581.144.746.1.163.225.272.378.328.156.053.32.08.492.08.129 0 .235-.007.318-.02l.199-.04.239 1.054a2.469 2.469 0 0 1-.875.139c-.332 0-.656-.071-.975-.213a1.944 1.944 0 0 1-.785-.652c-.206-.291-.308-.659-.308-1.103v-7.597Zm9.841 3.54-1.054.298a1.954 1.954 0 0 0-.293-.512 1.438 1.438 0 0 0-.517-.418c-.219-.109-.499-.164-.841-.164-.467 0-.856.108-1.168.324-.308.212-.462.482-.462.81 0 .292.106.522.318.691.212.169.543.31.994.423l1.134.278c.682.166 1.191.419 1.526.761.335.338.502.774.502 1.307 0 .438-.126.829-.378 1.173-.248.345-.596.617-1.044.816-.447.199-.968.298-1.561.298-.779 0-1.423-.169-1.934-.507-.51-.338-.833-.832-.969-1.482l1.113-.278c.106.411.307.719.602.925.298.205.688.308 1.168.308.547 0 .981-.116 1.303-.348.325-.235.487-.517.487-.845a.89.89 0 0 0-.278-.666c-.186-.183-.471-.319-.855-.408l-1.273-.298c-.7-.166-1.213-.423-1.541-.771-.325-.351-.488-.79-.488-1.317 0-.431.121-.812.363-1.144a2.48 2.48 0 0 1 1-.78 3.503 3.503 0 0 1 1.441-.284c.756 0 1.349.166 1.78.497.434.332.743.769.925 1.313Z"/><rect width="21" height="13" x="59" y="88" fill="#7E71B7" rx="6.5"/><path fill="#fff" d="M66.374 96.114V92.09h1.017v4.023h-1.017Zm-1.503-1.503v-1.017h4.023v1.017h-4.023Zm7.314 2.468a2.79 2.79 0 0 1-1.134-.218c-.33-.148-.59-.35-.781-.608a1.528 1.528 0 0 1-.293-.898h1.239a.646.646 0 0 0 .14.375.857.857 0 0 0 .346.247c.144.059.306.088.486.088.187 0 .353-.033.497-.1a.815.815 0 0 0 .338-.275.695.695 0 0 0 .122-.406.68.68 0 0 0-.13-.412.834.834 0 0 0-.37-.284 1.436 1.436 0 0 0-.568-.102h-.543v-.904h.543c.185 0 .35-.032.491-.096a.793.793 0 0 0 .335-.267c.08-.116.12-.25.12-.404a.697.697 0 0 0-.395-.644.942.942 0 0 0-.432-.094c-.167 0-.32.03-.457.09a.8.8 0 0 0-.333.254.665.665 0 0 0-.133.386h-1.18c.006-.335.102-.63.288-.886.185-.256.435-.456.75-.6a2.53 2.53 0 0 1 1.07-.219c.402 0 .754.073 1.055.219.3.146.535.343.701.59.169.247.252.524.25.83.002.326-.099.598-.304.816a1.383 1.383 0 0 1-.792.415v.045c.428.055.754.204.977.446.225.24.337.542.335.904a1.42 1.42 0 0 1-.287.883 1.91 1.91 0 0 1-.792.608 2.864 2.864 0 0 1-1.16.221Z"/><path fill="#B0B0B0" d="M19.121 136.364a1.563 1.563 0 0 0-.725-1.174c-.425-.278-.945-.417-1.562-.417-.45 0-.845.073-1.183.218a1.893 1.893 0 0 0-.785.602 1.441 1.441 0 0 0-.279.87c0 .272.065.506.194.701.133.192.302.353.507.482.206.126.421.231.647.314.225.079.432.144.621.193l1.034.279c.265.069.56.166.885.288.328.123.641.29.94.502.301.209.55.478.745.806.196.328.294.731.294 1.208 0 .55-.144 1.047-.433 1.491-.285.444-.702.797-1.253 1.059-.546.262-1.21.393-1.993.393-.73 0-1.36-.118-1.894-.353-.53-.235-.948-.563-1.253-.984a2.809 2.809 0 0 1-.512-1.467h1.273c.033.384.162.703.387.955a2.1 2.1 0 0 0 .865.556c.352.12.73.179 1.134.179.47 0 .893-.076 1.268-.228a2.18 2.18 0 0 0 .89-.647 1.53 1.53 0 0 0 .328-.974c0-.338-.095-.613-.284-.825a2.073 2.073 0 0 0-.745-.517 7.702 7.702 0 0 0-1-.348l-1.253-.358c-.795-.229-1.425-.556-1.889-.98-.464-.424-.696-.979-.696-1.665 0-.57.154-1.068.463-1.492a3.07 3.07 0 0 1 1.252-.994 4.225 4.225 0 0 1 1.765-.358c.657 0 1.24.118 1.75.353.51.232.915.55 1.213.955.302.404.461.863.478 1.377H19.12Zm6.403 7.795c-.736 0-1.37-.162-1.905-.487a3.273 3.273 0 0 1-1.227-1.372c-.285-.59-.428-1.276-.428-2.059 0-.782.143-1.471.428-2.068.288-.6.689-1.067 1.203-1.402.517-.338 1.12-.507 1.81-.507.397 0 .79.066 1.178.199.387.133.74.348 1.059.646.318.295.571.686.76 1.174.19.487.284 1.087.284 1.799v.498h-5.887v-1.015h4.693a2.5 2.5 0 0 0-.258-1.153 1.943 1.943 0 0 0-.726-.8c-.312-.196-.68-.294-1.104-.294-.467 0-.871.116-1.213.348a2.291 2.291 0 0 0-.78.895 2.628 2.628 0 0 0-.274 1.183v.676c0 .577.1 1.066.299 1.467.202.398.482.701.84.91.358.205.774.308 1.248.308.308 0 .586-.043.835-.129a1.79 1.79 0 0 0 .651-.398 1.82 1.82 0 0 0 .423-.666l1.133.318a2.52 2.52 0 0 1-.601 1.014c-.282.289-.63.514-1.044.676-.415.16-.88.239-1.397.239Zm4.946 2.705v-10.5h1.134v1.213h.14c.085-.133.205-.302.357-.507.156-.209.378-.395.666-.557.292-.166.686-.249 1.183-.249.643 0 1.21.161 1.7.482.491.322.874.778 1.15 1.368.274.59.412 1.286.412 2.088 0 .808-.138 1.509-.413 2.103-.275.59-.656 1.047-1.143 1.372-.487.321-1.05.482-1.686.482-.49 0-.883-.081-1.178-.244a2.183 2.183 0 0 1-.681-.561 7.516 7.516 0 0 1-.368-.527h-.1v4.037H30.47Zm1.154-6.682c0 .577.084 1.085.253 1.526.17.438.416.781.741 1.029.325.245.723.368 1.193.368.49 0 .9-.129 1.228-.388a2.37 2.37 0 0 0 .746-1.054c.169-.444.254-.938.254-1.481a4.02 4.02 0 0 0-.249-1.452 2.245 2.245 0 0 0-.74-1.029c-.329-.255-.742-.383-1.239-.383-.477 0-.878.121-1.203.363-.325.239-.57.573-.736 1.004-.165.428-.248.927-.248 1.497Zm14.875-6.364V144h-1.233v-8.889h-.06l-2.486 1.65v-1.252l2.546-1.691h1.233Zm6.19 10.321c-.683 0-1.287-.121-1.81-.363-.52-.245-.927-.581-1.218-1.009a2.534 2.534 0 0 1-.433-1.472 2.705 2.705 0 0 1 .96-2.112 2.167 2.167 0 0 1 1.009-.473v-.059a1.966 1.966 0 0 1-1.163-.821 2.483 2.483 0 0 1-.428-1.446 2.46 2.46 0 0 1 .393-1.388c.265-.407.63-.729 1.093-.964.468-.235 1-.353 1.596-.353.59 0 1.117.118 1.581.353.464.235.829.557 1.094.964.269.408.404.87.408 1.388a2.519 2.519 0 0 1-.443 1.446 1.964 1.964 0 0 1-1.148.821v.059c.368.067.7.224.994.473a2.765 2.765 0 0 1 .974 2.112 2.571 2.571 0 0 1-.447 1.472c-.291.428-.697.764-1.218 1.009-.517.242-1.115.363-1.795.363Zm0-1.094c.46 0 .858-.074 1.193-.223.334-.149.593-.36.775-.632a1.7 1.7 0 0 0 .279-.954 1.83 1.83 0 0 0-.299-1.019 2.024 2.024 0 0 0-.8-.696 2.514 2.514 0 0 0-1.149-.254c-.434 0-.822.085-1.163.254a2.024 2.024 0 0 0-.8.696 1.794 1.794 0 0 0-.284 1.019c-.003.364.085.683.264.954.182.272.442.483.78.632.338.149.74.223 1.203.223Zm0-4.832c.364 0 .687-.073.969-.219a1.66 1.66 0 0 0 .671-.611c.162-.262.245-.569.249-.92a1.697 1.697 0 0 0-.244-.9 1.581 1.581 0 0 0-.661-.596 2.148 2.148 0 0 0-.985-.214c-.38 0-.714.071-.999.214a1.543 1.543 0 0 0-.661.596 1.66 1.66 0 0 0-.229.9 1.71 1.71 0 0 0 .234.92c.162.262.386.465.671.611.285.146.613.219.984.219Zm327.945-4.395V144h-1.233v-8.889h-.06l-2.486 1.65v-1.252l2.546-1.691h1.233Zm6.11 10.321a3.493 3.493 0 0 1-1.576-.348 2.927 2.927 0 0 1-1.124-.954 2.595 2.595 0 0 1-.462-1.382h1.193c.046.46.255.841.626 1.143.375.298.822.447 1.343.447.417 0 .788-.097 1.113-.293.328-.195.585-.464.771-.805a2.39 2.39 0 0 0 .283-1.169c0-.444-.098-.84-.293-1.188a2.146 2.146 0 0 0-.796-.83 2.245 2.245 0 0 0-1.158-.308 3.142 3.142 0 0 0-.959.144c-.329.096-.599.22-.811.373l-1.153-.139.616-5.012h5.29v1.094h-4.256l-.358 3.003h.06c.209-.166.471-.303.786-.413.314-.109.643-.164.984-.164.623 0 1.178.149 1.665.448.491.294.875.699 1.154 1.213.282.513.422 1.1.422 1.76 0 .649-.145 1.229-.437 1.74a3.197 3.197 0 0 1-1.193 1.203c-.507.291-1.084.437-1.73.437Z"/><path stroke="#B0B0B0" stroke-linejoin="round" d="M397 139c0-3.967 3.69-7 8-7 4.31 0 8 3.033 8 7s-3.69 7-8 7a9.186 9.186 0 0 1-1.504-.123 5.98 5.98 0 0 1-3.935 1.107.749.749 0 0 1-.584-1.143 3.47 3.47 0 0 0 .522-1.756c-1.521-1.26-2.499-3.061-2.499-5.085Z" clip-rule="evenodd"/><g stroke="#B0B0B0" stroke-linecap="round" stroke-linejoin="round" stroke-opacity=".7" stroke-width="1.25" clip-path="url(#a)"><path d="M434.501 146.417a7.917 7.917 0 0 0 7.916-7.917 7.917 7.917 0 1 0-7.916 7.917Z"/><path d="M434.5 139.292a2.375 2.375 0 1 0 0-4.75 2.375 2.375 0 0 0 0 4.75Zm-3.959 6.065v-1.315a1.584 1.584 0 0 1 1.583-1.584h4.75a1.584 1.584 0 0 1 1.584 1.584v1.315"/></g><rect width="112" height="28" x="334" y="10" fill="#17254B" rx="14"/><rect width="111" height="27" x="334.5" y="10.5" stroke="#1566FD" stroke-opacity=".5" rx="13.5"/><path fill="#1566FD" d="M356 19v3a.503.503 0 0 1-.5.5h-3a.5.5 0 1 1 0-1h1.793l-.914-.914a4.974 4.974 0 0 0-3.508-1.465h-.028a4.972 4.972 0 0 0-3.494 1.423.498.498 0 0 1-.841-.365.5.5 0 0 1 .143-.35 5.998 5.998 0 0 1 8.437.05l.912.914V19a.503.503 0 0 1 .5-.5.5.5 0 0 1 .5.5Zm-2.349 8.456a5.003 5.003 0 0 1-7.03-.042l-.914-.914h1.793a.5.5 0 1 0 0-1h-3a.5.5 0 0 0-.5.5v3a.503.503 0 0 0 .5.5.5.5 0 0 0 .5-.5v-1.793l.914.914a5.967 5.967 0 0 0 4.211 1.758h.033a5.96 5.96 0 0 0 4.192-1.708.501.501 0 0 0-.699-.715Zm11.815-8.638V29h-1.233V18.818h1.233Zm3.486 5.588V29h-1.173v-7.636h1.133v1.193h.1c.179-.388.451-.7.815-.935.365-.238.835-.358 1.412-.358.517 0 .97.106 1.357.318.388.21.69.527.905.955.216.424.323.961.323 1.61V29h-1.173v-4.773c0-.6-.156-1.067-.467-1.402-.312-.338-.739-.507-1.283-.507-.374 0-.709.081-1.004.244a1.74 1.74 0 0 0-.691.71c-.169.312-.254.69-.254 1.134ZM380.065 29V18.818h3.44c.799 0 1.452.144 1.959.433.511.285.888.67 1.134 1.158.245.487.368 1.03.368 1.63 0 .6-.123 1.146-.368 1.636a2.737 2.737 0 0 1-1.124 1.174c-.507.288-1.157.432-1.949.432h-2.466v-1.093h2.426c.547 0 .986-.095 1.318-.284.331-.189.572-.444.721-.765.152-.325.228-.692.228-1.1 0-.407-.076-.772-.228-1.093a1.63 1.63 0 0 0-.726-.756c-.335-.185-.779-.278-1.332-.278h-2.168V29h-1.233Zm8.728 0v-7.636h1.133v1.153h.08c.139-.378.391-.684.755-.92a2.227 2.227 0 0 1 1.233-.353c.086 0 .194.002.323.005.13.004.228.009.294.015v1.193a3.46 3.46 0 0 0-.274-.044 2.681 2.681 0 0 0-.442-.035c-.371 0-.703.078-.994.233a1.768 1.768 0 0 0-.687.637 1.72 1.72 0 0 0-.248.92V29h-1.173Zm8.078.16c-.689 0-1.294-.165-1.814-.493a3.34 3.34 0 0 1-1.213-1.377c-.289-.59-.433-1.28-.433-2.068 0-.796.144-1.49.433-2.084a3.333 3.333 0 0 1 1.213-1.382c.52-.328 1.125-.492 1.814-.492.69 0 1.293.164 1.81.492.52.328.925.79 1.213 1.383.292.593.438 1.287.438 2.083 0 .788-.146 1.478-.438 2.068a3.298 3.298 0 0 1-1.213 1.377c-.517.328-1.12.492-1.81.492Zm0-1.055c.524 0 .955-.134 1.293-.403a2.38 2.38 0 0 0 .751-1.059c.162-.437.243-.911.243-1.421s-.081-.986-.243-1.427a2.41 2.41 0 0 0-.751-1.07c-.338-.27-.769-.407-1.293-.407-.523 0-.954.136-1.292.408a2.41 2.41 0 0 0-.751 1.069 4.1 4.1 0 0 0-.243 1.427c0 .51.081.984.243 1.421.163.438.413.79.751 1.06.338.268.769.402 1.292.402Zm8.334 3.918c-.567 0-1.054-.073-1.462-.219a3.11 3.11 0 0 1-1.019-.567 3.108 3.108 0 0 1-.641-.745l.935-.657c.106.14.24.299.402.477.163.183.385.34.666.473.286.136.658.204 1.119.204.617 0 1.125-.15 1.526-.448.401-.298.602-.765.602-1.402v-1.55h-.1c-.086.138-.208.31-.367.516a2.094 2.094 0 0 1-.677.542c-.291.156-.686.234-1.183.234-.616 0-1.17-.146-1.66-.438-.488-.292-.874-.716-1.159-1.273-.281-.556-.422-1.233-.422-2.028 0-.782.137-1.463.412-2.043.275-.584.658-1.034 1.149-1.353.49-.321 1.057-.482 1.7-.482.497 0 .892.083 1.183.249.295.162.521.348.676.557.16.205.282.374.368.507h.12v-1.213h1.133v7.855c0 .656-.149 1.19-.447 1.6a2.55 2.55 0 0 1-1.193.91 4.506 4.506 0 0 1-1.661.294Zm-.04-4.196c.471 0 .869-.108 1.193-.323.325-.216.572-.526.741-.93.169-.405.254-.888.254-1.452 0-.55-.083-1.036-.249-1.456a2.18 2.18 0 0 0-.736-.99c-.324-.238-.725-.358-1.203-.358-.497 0-.911.126-1.243.378-.328.252-.575.59-.74 1.014a3.908 3.908 0 0 0-.244 1.412c0 .53.083 1 .249 1.407.169.404.417.723.745.955.332.228.743.343 1.233.343ZM410.654 29v-7.636h1.133v1.153h.08c.139-.378.391-.684.756-.92a2.222 2.222 0 0 1 1.233-.353c.086 0 .194.002.323.005.129.004.227.009.293.015v1.193a3.492 3.492 0 0 0-.273-.044 2.703 2.703 0 0 0-.443-.035c-.371 0-.702.078-.994.233a1.712 1.712 0 0 0-.935 1.556V29h-1.173Zm8.178.16c-.736 0-1.37-.163-1.904-.488A3.27 3.27 0 0 1 415.7 27.3c-.285-.59-.427-1.276-.427-2.059 0-.782.142-1.471.427-2.068.288-.6.69-1.067 1.203-1.402.517-.338 1.12-.507 1.81-.507.398 0 .79.067 1.178.2.388.132.741.347 1.059.645.318.295.572.686.761 1.174.189.487.283 1.087.283 1.8v.497h-5.886v-1.015h4.693c0-.43-.086-.815-.259-1.153a1.952 1.952 0 0 0-.725-.8c-.312-.196-.68-.294-1.104-.294-.467 0-.872.116-1.213.348a2.297 2.297 0 0 0-.781.895 2.632 2.632 0 0 0-.273 1.183v.677c0 .576.099 1.065.298 1.466.202.398.482.701.84.91.358.205.774.308 1.248.308.308 0 .587-.043.835-.13.252-.089.469-.221.652-.397.182-.179.323-.4.422-.666l1.134.318c-.119.385-.32.723-.602 1.014a2.92 2.92 0 0 1-1.044.677c-.414.159-.88.238-1.397.238Zm10.356-6.086-1.054.298a1.955 1.955 0 0 0-.293-.512 1.43 1.43 0 0 0-.517-.418c-.219-.109-.499-.164-.841-.164-.467 0-.856.108-1.168.324-.308.212-.462.482-.462.81 0 .292.106.522.318.691.212.169.544.31.994.423l1.134.278c.683.166 1.191.42 1.526.76.335.339.502.774.502 1.308 0 .438-.126.829-.378 1.174-.248.344-.596.616-1.044.815-.447.199-.967.298-1.561.298-.779 0-1.423-.169-1.934-.507-.51-.338-.833-.832-.969-1.482l1.114-.278c.106.411.306.72.601.925.298.205.688.308 1.168.308.547 0 .981-.116 1.303-.348.325-.235.487-.517.487-.845a.89.89 0 0 0-.278-.666c-.186-.183-.471-.319-.855-.408l-1.273-.298c-.699-.166-1.213-.423-1.541-.77-.325-.352-.487-.791-.487-1.318 0-.431.12-.812.362-1.144a2.477 2.477 0 0 1 1-.78 3.508 3.508 0 0 1 1.441-.284c.756 0 1.349.166 1.78.497.435.332.743.77.925 1.313Zm7.314 0-1.053.298a1.988 1.988 0 0 0-.294-.512 1.421 1.421 0 0 0-.517-.418c-.219-.109-.499-.164-.84-.164-.467 0-.857.108-1.168.324-.309.212-.463.482-.463.81 0 .292.106.522.318.691.213.169.544.31.995.423l1.133.278c.683.166 1.192.42 1.527.76.334.339.502.774.502 1.308 0 .438-.126.829-.378 1.174-.249.344-.597.616-1.044.815-.448.199-.968.298-1.561.298-.779 0-1.424-.169-1.934-.507-.511-.338-.834-.832-.97-1.482l1.114-.278c.106.411.307.72.602.925.298.205.687.308 1.168.308.547 0 .981-.116 1.302-.348.325-.235.488-.517.488-.845a.887.887 0 0 0-.279-.666c-.185-.183-.47-.319-.855-.408l-1.273-.298c-.699-.166-1.213-.423-1.541-.77-.325-.352-.487-.791-.487-1.318 0-.431.121-.812.363-1.144a2.47 2.47 0 0 1 .999-.78 3.51 3.51 0 0 1 1.442-.284c.756 0 1.349.166 1.78.497.434.332.742.77.924 1.313Z"/><defs><clipPath id="a"><path fill="#fff" d="M425 129h19v19h-19z"/></clipPath></defs></svg>