<svg xmlns="http://www.w3.org/2000/svg" width="456" height="189" fill="none"><path fill="#15151E" d="M0 0h456v189H0z"/><rect width="455" height="188" x=".5" y=".5" stroke="#24252B" rx="4.5"/><path stroke="#9B9AA1" stroke-linecap="round" stroke-linejoin="round" stroke-miterlimit="10" stroke-width="2" d="m21 22.5-3.704-3.674a1.135 1.135 0 0 0-1.591 0L12 22.5"/><path fill="#9B9AA1" d="M30.878 25.12c-.585 0-1.108-.102-1.568-.303a2.662 2.662 0 0 1-1.087-.84 2.229 2.229 0 0 1-.426-1.253h1.338c.017.259.104.483.26.674.159.187.366.332.622.434.256.103.54.154.852.154.344 0 .648-.06.912-.18a1.49 1.49 0 0 0 .627-.498c.15-.216.225-.464.225-.745 0-.293-.075-.55-.225-.772a1.472 1.472 0 0 0-.652-.528c-.284-.128-.628-.192-1.032-.192h-.737v-1.074h.737c.324 0 .608-.058.853-.175.247-.116.44-.278.58-.485.139-.21.208-.456.208-.738 0-.27-.061-.504-.183-.703-.12-.201-.29-.36-.512-.473a1.662 1.662 0 0 0-.775-.17c-.284 0-.55.052-.797.157a1.48 1.48 0 0 0-.597.444 1.14 1.14 0 0 0-.247.686H27.98c.014-.472.154-.887.418-1.244a2.7 2.7 0 0 1 1.056-.84 3.44 3.44 0 0 1 1.458-.303c.56 0 1.043.11 1.449.329.409.215.724.504.946.865.224.36.335.755.332 1.184.003.489-.133.904-.409 1.245-.273.34-.636.57-1.09.686v.068c.579.088 1.028.318 1.346.69.32.372.48.834.477 1.385.003.48-.13.91-.4 1.291-.268.381-.633.68-1.096.9-.463.215-.993.323-1.59.323Zm4.513-1.825V22.23l3.77-5.957h.84v1.568h-.532l-2.698 4.27v.068h5.17v1.117h-6.55ZM39.528 25v-2.028l.009-.486v-6.213h1.248V25h-1.257Z"/><rect width="177" height="16" x="12" y="37" fill="#797979" fill-opacity=".25" rx="4"/><rect width="225" height="16" x="12" y="63" fill="#797979" fill-opacity=".1" rx="4"/><rect width="111" height="27" x="12.5" y="87.5" stroke="#37363D" rx="13.5"/><circle cx="24" cy="101" r="4" fill="#66AAF9"/><path fill="#fff" d="m36.082 106-2.784-10.182h1.253l2.128 8.293h.1l2.167-8.293h1.392l2.168 8.293h.1l2.127-8.293h1.253L43.202 106h-1.273l-2.247-8.114h-.08L37.355 106h-1.273Zm13.772.159c-.736 0-1.37-.162-1.904-.487a3.273 3.273 0 0 1-1.228-1.372c-.285-.59-.428-1.276-.428-2.059 0-.782.143-1.471.428-2.068.288-.6.689-1.067 1.203-1.402.517-.338 1.12-.507 1.81-.507.397 0 .79.067 1.178.2.387.132.74.347 1.059.645.318.295.571.687.76 1.174.19.487.284 1.087.284 1.799v.498h-5.887v-1.015h4.693a2.5 2.5 0 0 0-.258-1.153 1.95 1.95 0 0 0-.726-.8c-.312-.196-.68-.294-1.104-.294-.467 0-.871.116-1.213.348a2.288 2.288 0 0 0-.78.895 2.628 2.628 0 0 0-.274 1.183v.676c0 .577.1 1.066.299 1.467.202.398.482.701.84.91.358.205.774.308 1.248.308.308 0 .586-.043.835-.129a1.79 1.79 0 0 0 .651-.398 1.82 1.82 0 0 0 .423-.666l1.133.318c-.119.385-.32.723-.601 1.014-.282.289-.63.514-1.044.676-.415.16-.88.239-1.397.239Zm5.105-.159V95.818h1.174v3.759h.1c.085-.133.205-.302.357-.507.156-.21.378-.395.666-.557.292-.166.687-.249 1.184-.249.643 0 1.21.161 1.7.482.49.322.873.778 1.148 1.368.275.59.413 1.286.413 2.088 0 .808-.138 1.509-.413 2.103-.275.59-.656 1.047-1.143 1.372-.487.321-1.05.482-1.686.482-.49 0-.883-.081-1.178-.244a2.185 2.185 0 0 1-.68-.561 7.585 7.585 0 0 1-.369-.527h-.139V106h-1.134Zm1.154-3.818c0 .577.084 1.085.254 1.526.169.438.415.781.74 1.029.325.245.723.368 1.193.368.491 0 .9-.129 1.228-.388a2.37 2.37 0 0 0 .746-1.054c.17-.444.254-.938.254-1.481a4.02 4.02 0 0 0-.249-1.452 2.244 2.244 0 0 0-.74-1.029c-.329-.255-.741-.383-1.239-.383-.477 0-.878.121-1.203.363-.325.239-.57.573-.736 1.004-.165.428-.248.927-.248 1.497Zm11.897-6.364 3.023 8.571h.119l3.023-8.57h1.292L71.73 106h-1.273l-3.739-10.182h1.293Zm11.375 10.341c-.736 0-1.37-.162-1.904-.487a3.273 3.273 0 0 1-1.228-1.372c-.285-.59-.428-1.276-.428-2.059 0-.782.143-1.471.428-2.068.288-.6.69-1.067 1.203-1.402.517-.338 1.12-.507 1.81-.507.397 0 .79.067 1.178.2.388.132.74.347 1.059.645.318.295.572.687.76 1.174.19.487.284 1.087.284 1.799v.498H76.66v-1.015h4.693c0-.431-.087-.815-.259-1.153a1.95 1.95 0 0 0-.726-.8c-.311-.196-.68-.294-1.103-.294-.468 0-.872.116-1.213.348a2.288 2.288 0 0 0-.781.895 2.628 2.628 0 0 0-.273 1.183v.676c0 .577.099 1.066.298 1.467.202.398.482.701.84.91.358.205.774.308 1.248.308.308 0 .587-.043.835-.129a1.79 1.79 0 0 0 .651-.398c.183-.179.324-.401.423-.666l1.134.318a2.51 2.51 0 0 1-.602 1.014c-.282.289-.63.514-1.044.676-.414.16-.88.239-1.397.239Zm4.947-.159v-7.636h1.133v1.153h.08c.139-.378.39-.684.755-.92a2.225 2.225 0 0 1 1.233-.353c.087 0 .194.002.323.005.13.004.228.009.294.015v1.193a3.458 3.458 0 0 0-.274-.044 2.691 2.691 0 0 0-.442-.035c-.371 0-.703.078-.994.234a1.713 1.713 0 0 0-.935 1.556V106h-1.173Zm10.618-5.926-1.054.298a1.956 1.956 0 0 0-.293-.512 1.423 1.423 0 0 0-.518-.418c-.218-.109-.498-.164-.84-.164-.467 0-.857.108-1.168.324-.308.212-.462.482-.462.81 0 .292.106.522.318.691.212.169.543.31.994.423l1.133.278c.683.166 1.192.419 1.527.761.335.338.502.774.502 1.307 0 .438-.126.829-.378 1.173-.248.345-.596.617-1.044.816-.447.199-.968.298-1.561.298-.779 0-1.423-.169-1.934-.507-.51-.338-.834-.832-.97-1.482l1.114-.278c.106.411.307.719.602.925.298.205.688.308 1.168.308.547 0 .981-.116 1.303-.348.325-.235.487-.517.487-.845a.888.888 0 0 0-.279-.666c-.185-.183-.47-.319-.855-.408l-1.272-.298c-.7-.166-1.213-.423-1.542-.771-.324-.351-.487-.79-.487-1.317 0-.431.121-.812.363-1.144a2.47 2.47 0 0 1 1-.78 3.51 3.51 0 0 1 1.441-.284c.756 0 1.35.166 1.78.497.434.332.742.77.925 1.313ZM96.855 106v-7.636h1.173V106h-1.173Zm.597-8.91a.834.834 0 0 1-.592-.233.75.75 0 0 1-.243-.561.75.75 0 0 1 .243-.562.834.834 0 0 1 .592-.234c.228 0 .424.078.586.234a.744.744 0 0 1 .249.562.743.743 0 0 1-.249.561.817.817 0 0 1-.586.234Zm5.828 9.069c-.69 0-1.295-.164-1.815-.492a3.345 3.345 0 0 1-1.213-1.377c-.288-.59-.433-1.28-.433-2.068 0-.796.145-1.49.433-2.084a3.341 3.341 0 0 1 1.213-1.382c.52-.328 1.125-.492 1.815-.492.689 0 1.292.164 1.809.492.521.329.925.79 1.213 1.382.292.594.438 1.288.438 2.084 0 .788-.146 1.478-.438 2.068a3.29 3.29 0 0 1-1.213 1.377c-.517.328-1.12.492-1.809.492Zm0-1.054c.523 0 .954-.134 1.292-.403.338-.268.589-.621.751-1.059.162-.437.244-.911.244-1.421 0-.511-.082-.986-.244-1.427a2.402 2.402 0 0 0-.751-1.07c-.338-.27-.769-.407-1.292-.407-.524 0-.955.136-1.293.408a2.41 2.41 0 0 0-.751 1.069 4.104 4.104 0 0 0-.243 1.427c0 .51.081.984.243 1.421.163.438.413.791.751 1.059.338.269.769.403 1.293.403Zm6.424-3.699V106h-1.173v-7.636h1.133v1.193h.1c.179-.388.451-.7.815-.935.365-.239.835-.358 1.412-.358.517 0 .97.106 1.357.318.388.21.69.527.905.955.216.424.323.961.323 1.611V106h-1.173v-4.773c0-.6-.156-1.067-.467-1.402-.312-.338-.739-.507-1.283-.507-.374 0-.709.081-1.004.244a1.74 1.74 0 0 0-.691.711c-.169.311-.254.689-.254 1.133Z"/><rect width="90" height="27" x="128.5" y="87.5" stroke="#37363D" rx="13.5"/><path fill="#fff" d="M145.307 95.818V106h-1.193l-5.549-7.994h-.099V106h-1.233V95.818h1.193l5.568 8.014h.1v-8.014h1.213Zm5.41 10.341c-.689 0-1.294-.164-1.814-.492a3.34 3.34 0 0 1-1.214-1.377c-.288-.59-.432-1.28-.432-2.068 0-.796.144-1.49.432-2.084a3.336 3.336 0 0 1 1.214-1.382c.52-.328 1.125-.492 1.814-.492.69 0 1.293.164 1.81.492.52.329.925.79 1.213 1.382.292.594.437 1.288.437 2.084 0 .788-.145 1.478-.437 2.068a3.296 3.296 0 0 1-1.213 1.377c-.517.328-1.12.492-1.81.492Zm0-1.054c.524 0 .955-.134 1.293-.403.338-.268.588-.621.75-1.059.163-.437.244-.911.244-1.421 0-.511-.081-.986-.244-1.427a2.4 2.4 0 0 0-.75-1.07c-.338-.27-.769-.407-1.293-.407-.524 0-.954.136-1.292.408a2.394 2.394 0 0 0-.751 1.069 4.081 4.081 0 0 0-.244 1.427c0 .51.081.984.244 1.421.162.438.412.791.751 1.059.338.269.768.403 1.292.403Zm9.189 3.759v-10.5h1.133v1.213h.14a9.98 9.98 0 0 1 .358-.507c.155-.21.377-.395.666-.557.291-.166.686-.249 1.183-.249.643 0 1.21.161 1.7.482.491.322.874.778 1.149 1.368.275.59.412 1.286.412 2.088 0 .808-.137 1.509-.412 2.103-.275.59-.657 1.047-1.144 1.372-.487.321-1.049.482-1.685.482-.491 0-.883-.081-1.178-.244a2.182 2.182 0 0 1-.681-.561 7.195 7.195 0 0 1-.368-.527h-.1v4.037h-1.173Zm1.153-6.682c0 .577.085 1.085.254 1.526.169.438.416.781.741 1.029.324.245.722.368 1.193.368.49 0 .9-.129 1.228-.388.331-.262.58-.613.746-1.054.169-.444.253-.938.253-1.481 0-.537-.083-1.021-.249-1.452a2.243 2.243 0 0 0-.74-1.029c-.328-.255-.741-.383-1.238-.383-.477 0-.879.121-1.203.363-.325.239-.57.573-.736 1.004-.166.428-.249.927-.249 1.497Zm7.378 3.818v-7.636h1.134v1.153h.079c.139-.378.391-.684.756-.92a2.222 2.222 0 0 1 1.233-.353c.086 0 .194.002.323.005.129.004.227.009.293.015v1.193a3.404 3.404 0 0 0-.273-.044 2.694 2.694 0 0 0-.443-.035c-.371 0-.702.078-.994.234a1.712 1.712 0 0 0-.935 1.556V106h-1.173Zm8.079.159c-.689 0-1.294-.164-1.815-.492a3.345 3.345 0 0 1-1.213-1.377c-.288-.59-.432-1.28-.432-2.068 0-.796.144-1.49.432-2.084a3.341 3.341 0 0 1 1.213-1.382c.521-.328 1.126-.492 1.815-.492.689 0 1.293.164 1.81.492a3.3 3.3 0 0 1 1.213 1.382c.291.594.437 1.288.437 2.084 0 .788-.146 1.478-.437 2.068a3.303 3.303 0 0 1-1.213 1.377c-.517.328-1.121.492-1.81.492Zm0-1.054c.524 0 .955-.134 1.293-.403.338-.268.588-.621.75-1.059.163-.437.244-.911.244-1.421 0-.511-.081-.986-.244-1.427a2.4 2.4 0 0 0-.75-1.07c-.338-.27-.769-.407-1.293-.407-.524 0-.955.136-1.293.408a2.4 2.4 0 0 0-.75 1.069 4.081 4.081 0 0 0-.244 1.427c0 .51.081.984.244 1.421.162.438.412.791.75 1.059.338.269.769.403 1.293.403Zm8.135 1.054c-.637 0-1.198-.161-1.686-.482-.487-.325-.868-.782-1.143-1.372-.275-.594-.413-1.295-.413-2.103 0-.802.138-1.498.413-2.088.275-.59.658-1.046 1.148-1.368.491-.321 1.058-.482 1.701-.482.497 0 .89.083 1.178.249.292.162.514.348.666.557.156.205.277.374.363.507h.099v-3.759h1.174V106h-1.134v-1.173h-.139a7.523 7.523 0 0 1-.368.527 2.182 2.182 0 0 1-.681.561c-.295.163-.688.244-1.178.244Zm.159-1.054c.47 0 .868-.123 1.193-.368.325-.248.572-.591.741-1.029.169-.441.253-.949.253-1.526 0-.57-.083-1.069-.248-1.497-.166-.431-.411-.765-.736-1.004-.325-.242-.726-.363-1.203-.363-.497 0-.912.128-1.243.383a2.296 2.296 0 0 0-.741 1.029 4.102 4.102 0 0 0-.243 1.452c0 .543.082 1.037.248 1.481.169.441.418.792.746 1.054.331.259.742.388 1.233.388Zm10.465-2.227v-4.514h1.173V106h-1.173v-1.293h-.08a2.497 2.497 0 0 1-.835.99c-.378.268-.855.402-1.432.402-.477 0-.901-.104-1.272-.313a2.192 2.192 0 0 1-.875-.954c-.212-.428-.318-.966-.318-1.616v-4.852h1.173v4.772c0 .557.156 1.001.467 1.333.315.331.716.497 1.203.497.292 0 .589-.075.89-.224.305-.149.56-.378.766-.686.209-.308.313-.701.313-1.178Zm6.425 3.281c-.716 0-1.333-.169-1.85-.507a3.303 3.303 0 0 1-1.193-1.397c-.278-.593-.418-1.271-.418-2.033 0-.776.143-1.46.428-2.054a3.376 3.376 0 0 1 1.203-1.397c.517-.338 1.12-.507 1.81-.507.537 0 1.021.1 1.451.299a2.78 2.78 0 0 1 1.059.835 2.6 2.6 0 0 1 .512 1.253h-1.173c-.089-.348-.288-.657-.596-.925-.305-.272-.716-.408-1.233-.408-.458 0-.859.12-1.204.358-.341.236-.608.569-.8.999-.189.428-.283.93-.283 1.507 0 .59.092 1.104.278 1.541.189.438.454.777.796 1.019.344.242.749.363 1.213.363a2.1 2.1 0 0 0 .83-.159 1.71 1.71 0 0 0 .631-.457 1.75 1.75 0 0 0 .368-.716h1.173a2.72 2.72 0 0 1-.492 1.218 2.74 2.74 0 0 1-1.029.855c-.424.209-.918.313-1.481.313Zm8.039-7.795v.994h-3.958v-.994h3.958Zm-2.804-1.83h1.173v7.278c0 .332.048.581.144.746.1.163.226.272.378.328.156.053.32.08.492.08.129 0 .235-.007.318-.02l.199-.04.239 1.054a2.469 2.469 0 0 1-.875.139c-.332 0-.656-.071-.975-.213a1.944 1.944 0 0 1-.785-.652c-.206-.291-.308-.659-.308-1.103v-7.597Z"/><rect width="131" height="27" x="12.5" y="119.5" stroke="#37363D" rx="13.5"/><path fill="#fff" d="M21.233 138v-10.182h6.105v1.094h-4.872v3.44h4.415v1.094h-4.415V138h-1.233Zm10.699.159c-.736 0-1.37-.162-1.904-.487A3.273 3.273 0 0 1 28.8 136.3c-.285-.59-.428-1.276-.428-2.059 0-.782.143-1.471.428-2.068.288-.6.69-1.067 1.203-1.402.517-.338 1.12-.507 1.81-.507.397 0 .79.066 1.178.199.388.133.74.348 1.059.646.318.295.571.686.76 1.174.19.487.284 1.087.284 1.799v.498h-5.887v-1.015h4.694a2.5 2.5 0 0 0-.259-1.153 1.943 1.943 0 0 0-.726-.8c-.311-.196-.68-.294-1.103-.294-.468 0-.872.116-1.214.348a2.291 2.291 0 0 0-.78.895 2.628 2.628 0 0 0-.273 1.183v.676c0 .577.099 1.066.298 1.467.202.398.482.701.84.91.358.205.774.308 1.248.308.308 0 .587-.043.835-.129a1.79 1.79 0 0 0 .651-.398c.183-.179.324-.401.423-.666l1.133.318c-.119.385-.32.723-.601 1.014-.282.289-.63.514-1.044.676-.415.16-.88.239-1.397.239Zm7.194.02c-.484 0-.923-.091-1.318-.273a2.265 2.265 0 0 1-.94-.801c-.231-.351-.347-.775-.347-1.273 0-.437.086-.792.258-1.064.172-.275.403-.49.691-.646.288-.156.607-.272.955-.348.351-.079.704-.142 1.059-.189.464-.059.84-.104 1.128-.134.292-.033.504-.088.637-.164.136-.076.203-.209.203-.398v-.04c0-.49-.134-.871-.402-1.143-.265-.272-.668-.408-1.208-.408-.56 0-1 .123-1.318.368-.318.245-.542.507-.671.786l-1.114-.398c.2-.464.464-.825.796-1.084.335-.262.7-.444 1.094-.547a4.543 4.543 0 0 1 1.173-.159c.245 0 .527.03.845.09a2.7 2.7 0 0 1 .93.353c.301.179.552.449.75.81.2.361.299.845.299 1.452V138h-1.174v-1.034h-.06a2.036 2.036 0 0 1-.397.532c-.186.189-.432.35-.74.482-.309.133-.685.199-1.13.199Zm.179-1.054c.464 0 .855-.091 1.173-.273a1.87 1.87 0 0 0 .726-.706c.166-.289.248-.592.248-.91v-1.074c-.05.06-.159.114-.328.164a5.527 5.527 0 0 1-.576.124c-.216.033-.426.063-.632.09-.202.023-.366.043-.492.059-.305.04-.59.105-.855.194a1.47 1.47 0 0 0-.637.393c-.159.172-.238.408-.238.706 0 .408.15.716.452.925.305.205.691.308 1.159.308Zm8.783-6.761v.994h-3.957v-.994h3.957Zm-2.804-1.83h1.174v7.278c0 .332.048.581.144.746.1.163.225.272.378.328.155.053.32.08.492.08.129 0 .235-.007.318-.02l.199-.04.239 1.054c-.08.03-.191.06-.334.09a2.467 2.467 0 0 1-.541.049 2.37 2.37 0 0 1-.975-.213 1.939 1.939 0 0 1-.785-.652c-.206-.291-.309-.659-.309-1.103v-7.597Zm9.382 6.344v-4.514h1.173V138h-1.173v-1.293h-.08a2.508 2.508 0 0 1-.835.99c-.378.268-.855.402-1.432.402a2.55 2.55 0 0 1-1.273-.313 2.192 2.192 0 0 1-.875-.954c-.212-.428-.318-.966-.318-1.616v-4.852h1.173v4.772c0 .557.156 1.001.468 1.333.315.331.716.497 1.203.497a2 2 0 0 0 .89-.224 1.94 1.94 0 0 0 .765-.686c.21-.308.314-.701.314-1.178ZM57.988 138v-7.636h1.133v1.153h.08a1.84 1.84 0 0 1 .756-.92 2.227 2.227 0 0 1 1.233-.353c.086 0 .194.002.323.005.129.004.227.009.293.015v1.193c-.04-.01-.13-.024-.273-.044a2.606 2.606 0 0 0-.443-.035c-.371 0-.703.078-.994.234a1.756 1.756 0 0 0-.686.636 1.714 1.714 0 0 0-.249.92V138h-1.173Zm8.178.159c-.736 0-1.37-.162-1.904-.487a3.273 3.273 0 0 1-1.228-1.372c-.285-.59-.428-1.276-.428-2.059 0-.782.143-1.471.428-2.068.288-.6.69-1.067 1.203-1.402.517-.338 1.12-.507 1.81-.507.398 0 .79.066 1.178.199.388.133.74.348 1.06.646.317.295.57.686.76 1.174.189.487.283 1.087.283 1.799v.498h-5.886v-1.015h4.693a2.5 2.5 0 0 0-.259-1.153 1.944 1.944 0 0 0-.725-.8c-.312-.196-.68-.294-1.104-.294-.468 0-.872.116-1.213.348a2.29 2.29 0 0 0-.78.895 2.628 2.628 0 0 0-.274 1.183v.676c0 .577.1 1.066.298 1.467.202.398.482.701.84.91.358.205.774.308 1.248.308.308 0 .587-.043.835-.129a1.79 1.79 0 0 0 .652-.398c.182-.179.323-.401.422-.666l1.134.318a2.51 2.51 0 0 1-.602 1.014c-.281.289-.63.514-1.044.676-.414.16-.88.239-1.397.239ZM75.21 138v-10.182h3.44c.795 0 1.448.136 1.959.408.51.268.888.638 1.133 1.109.245.47.368 1.005.368 1.605 0 .6-.123 1.132-.368 1.596-.245.464-.621.829-1.128 1.094-.508.262-1.155.393-1.944.393h-2.784v-1.114h2.744c.544 0 .981-.079 1.313-.239.334-.159.576-.384.725-.676.153-.295.229-.646.229-1.054 0-.407-.076-.764-.229-1.069a1.564 1.564 0 0 0-.73-.706c-.335-.169-.778-.253-1.328-.253h-2.168V138H75.21Zm4.792-4.574L82.508 138h-1.432l-2.466-4.574h1.392Zm7.123 4.733c-.736 0-1.37-.162-1.904-.487a3.273 3.273 0 0 1-1.228-1.372c-.285-.59-.427-1.276-.427-2.059 0-.782.142-1.471.427-2.068.288-.6.69-1.067 1.203-1.402.517-.338 1.12-.507 1.81-.507.398 0 .79.066 1.178.199.388.133.74.348 1.06.646.317.295.57.686.76 1.174.189.487.283 1.087.283 1.799v.498h-5.886v-1.015h4.693a2.5 2.5 0 0 0-.259-1.153 1.944 1.944 0 0 0-.725-.8c-.312-.196-.68-.294-1.104-.294-.468 0-.872.116-1.213.348a2.29 2.29 0 0 0-.78.895 2.628 2.628 0 0 0-.274 1.183v.676c0 .577.1 1.066.298 1.467.202.398.482.701.84.91.358.205.774.308 1.248.308.308 0 .587-.043.835-.129a1.79 1.79 0 0 0 .652-.398c.182-.179.323-.401.422-.666l1.134.318a2.51 2.51 0 0 1-.602 1.014c-.282.289-.63.514-1.044.676-.414.16-.88.239-1.397.239Zm10.157 2.705v-4.037h-.1a7.55 7.55 0 0 1-.367.527c-.16.208-.386.396-.681.561-.295.163-.688.244-1.179.244-.636 0-1.198-.161-1.685-.482-.487-.325-.868-.782-1.143-1.372-.275-.594-.413-1.295-.413-2.103 0-.802.138-1.498.413-2.088.275-.59.657-1.046 1.148-1.368.49-.321 1.057-.482 1.7-.482.498 0 .89.083 1.179.249.291.162.513.348.666.557a8.7 8.7 0 0 1 .363.507h.139v-1.213h1.133v10.5h-1.173Zm-2.167-3.759c.47 0 .868-.123 1.193-.368.324-.248.571-.591.74-1.029.17-.441.254-.949.254-1.526 0-.57-.083-1.069-.249-1.497-.165-.431-.41-.765-.735-1.004-.325-.242-.726-.363-1.203-.363-.498 0-.912.128-1.243.383a2.293 2.293 0 0 0-.741 1.029 4.093 4.093 0 0 0-.244 1.452c0 .543.083 1.037.249 1.481.169.441.417.792.746 1.054.331.259.742.388 1.233.388Zm10.301-2.227v-4.514h1.173V138h-1.173v-1.293h-.08a2.505 2.505 0 0 1-.835.99c-.378.268-.855.402-1.432.402-.477 0-.901-.104-1.273-.313a2.192 2.192 0 0 1-.875-.954c-.212-.428-.318-.966-.318-1.616v-4.852h1.173v4.772c0 .557.156 1.001.468 1.333.315.331.716.497 1.203.497a2 2 0 0 0 .89-.224c.305-.149.56-.378.765-.686.209-.308.314-.701.314-1.178Zm6.524 3.281c-.736 0-1.371-.162-1.904-.487a3.266 3.266 0 0 1-1.228-1.372c-.286-.59-.428-1.276-.428-2.059 0-.782.142-1.471.428-2.068.288-.6.689-1.067 1.203-1.402.517-.338 1.12-.507 1.809-.507.398 0 .791.066 1.179.199.387.133.74.348 1.059.646.318.295.571.686.76 1.174.189.487.284 1.087.284 1.799v.498h-5.887v-1.015h4.693c0-.431-.086-.815-.258-1.153a1.943 1.943 0 0 0-.726-.8c-.312-.196-.679-.294-1.104-.294-.467 0-.871.116-1.213.348a2.288 2.288 0 0 0-.78.895 2.62 2.62 0 0 0-.274 1.183v.676c0 .577.1 1.066.299 1.467.202.398.482.701.84.91.358.205.774.308 1.248.308.308 0 .586-.043.835-.129.252-.09.469-.222.651-.398a1.82 1.82 0 0 0 .423-.666l1.133.318c-.119.385-.32.723-.601 1.014-.282.289-.63.514-1.044.676-.415.16-.88.239-1.397.239Zm10.355-6.085-1.054.298a1.954 1.954 0 0 0-.293-.512 1.43 1.43 0 0 0-.517-.418c-.219-.109-.499-.164-.84-.164-.467 0-.857.108-1.168.324-.309.212-.463.482-.463.81 0 .292.106.522.318.691.213.169.544.31.995.423l1.133.278c.683.166 1.192.419 1.527.761.334.338.502.774.502 1.307 0 .438-.126.829-.378 1.173-.249.345-.597.617-1.044.816-.448.199-.968.298-1.561.298-.779 0-1.424-.169-1.934-.507-.511-.338-.834-.832-.97-1.482l1.114-.278c.106.411.307.719.601.925.299.205.688.308 1.169.308.547 0 .981-.116 1.302-.348.325-.235.488-.517.488-.845a.887.887 0 0 0-.279-.666c-.185-.183-.47-.319-.855-.408l-1.273-.298c-.699-.166-1.213-.423-1.541-.771-.325-.351-.487-.79-.487-1.317 0-.431.121-.812.363-1.144a2.47 2.47 0 0 1 .999-.78 3.508 3.508 0 0 1 1.442-.284c.756 0 1.349.166 1.78.497.434.332.742.769.924 1.313Zm5.227-1.71v.994h-3.958v-.994h3.958Zm-2.804-1.83h1.173v7.278c0 .332.048.581.144.746.1.163.226.272.378.328.156.053.32.08.492.08.13 0 .236-.007.319-.02l.198-.04.239 1.054a2.469 2.469 0 0 1-.875.139c-.331 0-.656-.071-.974-.213a1.94 1.94 0 0 1-.786-.652c-.205-.291-.308-.659-.308-1.103v-7.597Zm9.841 3.54-1.054.298a1.954 1.954 0 0 0-.293-.512 1.43 1.43 0 0 0-.517-.418c-.219-.109-.499-.164-.84-.164-.468 0-.857.108-1.169.324-.308.212-.462.482-.462.81 0 .292.106.522.318.691.212.169.544.31.994.423l1.134.278c.683.166 1.191.419 1.526.761.335.338.502.774.502 1.307 0 .438-.126.829-.378 1.173-.248.345-.596.617-1.044.816-.447.199-.967.298-1.561.298-.779 0-1.423-.169-1.934-.507-.51-.338-.833-.832-.969-1.482l1.114-.278c.106.411.306.719.601.925.298.205.688.308 1.168.308.547 0 .982-.116 1.303-.348.325-.235.487-.517.487-.845a.89.89 0 0 0-.278-.666c-.186-.183-.471-.319-.855-.408l-1.273-.298c-.699-.166-1.213-.423-1.541-.771-.325-.351-.487-.79-.487-1.317 0-.431.121-.812.363-1.144a2.47 2.47 0 0 1 .999-.78 3.508 3.508 0 0 1 1.442-.284c.755 0 1.349.166 1.779.497.435.332.743.769.925 1.313Z"/><rect width="21" height="13" x="109" y="81.5" fill="#7E71B7" rx="6.5"/><path fill="#fff" d="M116.554 89.614V85.59h1.017v4.023h-1.017Zm-1.503-1.503v-1.017h4.023v1.017h-4.023Zm5.038 2.389v-.886l2.071-1.918a7.74 7.74 0 0 0 .443-.46 1.8 1.8 0 0 0 .276-.4 1 1 0 0 0 .093-.43.77.77 0 0 0-.434-.727 1 1 0 0 0-.458-.102.963.963 0 0 0-.466.108.74.74 0 0 0-.306.31 1.004 1.004 0 0 0-.108.48h-1.168c0-.381.086-.712.258-.992a1.73 1.73 0 0 1 .725-.65c.311-.154.668-.23 1.074-.23.416 0 .779.073 1.088.22.31.147.552.35.724.609.173.26.259.557.259.892 0 .22-.044.436-.131.65-.085.214-.238.452-.457.713-.22.26-.53.572-.929.935l-.85.832v.04h2.444V90.5h-4.148Z"/><path fill="#B0B0B0" d="M19.121 164.364a1.563 1.563 0 0 0-.725-1.174c-.425-.278-.945-.417-1.562-.417-.45 0-.845.073-1.183.218a1.893 1.893 0 0 0-.785.602 1.441 1.441 0 0 0-.279.87c0 .272.065.506.194.701.133.192.302.353.507.482.206.126.421.231.647.314.225.079.432.144.621.193l1.034.279c.265.069.56.166.885.288.328.123.641.29.94.502.301.209.55.478.745.806.196.328.294.731.294 1.208 0 .55-.144 1.047-.433 1.491-.285.444-.702.797-1.253 1.059-.546.262-1.21.393-1.993.393-.73 0-1.36-.118-1.894-.353-.53-.235-.948-.563-1.253-.984a2.809 2.809 0 0 1-.512-1.467h1.273c.033.384.162.703.387.955a2.1 2.1 0 0 0 .865.556c.352.12.73.179 1.134.179.47 0 .893-.076 1.268-.228a2.18 2.18 0 0 0 .89-.647 1.53 1.53 0 0 0 .328-.974c0-.338-.095-.613-.284-.825a2.073 2.073 0 0 0-.745-.517 7.702 7.702 0 0 0-1-.348l-1.253-.358c-.795-.229-1.425-.556-1.889-.98-.464-.424-.696-.979-.696-1.665 0-.57.154-1.068.463-1.492a3.07 3.07 0 0 1 1.252-.994 4.225 4.225 0 0 1 1.765-.358c.657 0 1.24.118 1.75.353.51.232.915.55 1.213.955.302.404.461.863.478 1.377H19.12Zm6.403 7.795c-.736 0-1.37-.162-1.905-.487a3.273 3.273 0 0 1-1.227-1.372c-.285-.59-.428-1.276-.428-2.059 0-.782.143-1.471.428-2.068.288-.6.689-1.067 1.203-1.402.517-.338 1.12-.507 1.81-.507.397 0 .79.066 1.178.199.387.133.74.348 1.059.646.318.295.571.686.76 1.174.19.487.284 1.087.284 1.799v.498h-5.887v-1.015h4.693a2.5 2.5 0 0 0-.258-1.153 1.943 1.943 0 0 0-.726-.8c-.312-.196-.68-.294-1.104-.294-.467 0-.871.116-1.213.348a2.291 2.291 0 0 0-.78.895 2.628 2.628 0 0 0-.274 1.183v.676c0 .577.1 1.066.299 1.467.202.398.482.701.84.91.358.205.774.308 1.248.308.308 0 .586-.043.835-.129a1.79 1.79 0 0 0 .651-.398 1.82 1.82 0 0 0 .423-.666l1.133.318a2.52 2.52 0 0 1-.601 1.014c-.282.289-.63.514-1.044.676-.415.16-.88.239-1.397.239Zm4.946 2.705v-10.5h1.134v1.213h.14c.085-.133.205-.302.357-.507.156-.209.378-.395.666-.557.292-.166.686-.249 1.183-.249.643 0 1.21.161 1.7.482.491.322.874.778 1.15 1.368.274.59.412 1.286.412 2.088 0 .808-.138 1.509-.413 2.103-.275.59-.656 1.047-1.143 1.372-.487.321-1.05.482-1.686.482-.49 0-.883-.081-1.178-.244a2.183 2.183 0 0 1-.681-.561 7.516 7.516 0 0 1-.368-.527h-.1v4.037H30.47Zm1.154-6.682c0 .577.084 1.085.253 1.526.17.438.416.781.741 1.029.325.245.723.368 1.193.368.49 0 .9-.129 1.228-.388a2.37 2.37 0 0 0 .746-1.054c.169-.444.254-.938.254-1.481a4.02 4.02 0 0 0-.249-1.452 2.245 2.245 0 0 0-.74-1.029c-.329-.255-.742-.383-1.239-.383-.477 0-.878.121-1.203.363-.325.239-.57.573-.736 1.004-.165.428-.248.927-.248 1.497Zm14.875-6.364V172h-1.233v-8.889h-.06l-2.486 1.65v-1.252l2.546-1.691h1.233Zm6.19 10.321c-.683 0-1.287-.121-1.81-.363-.52-.245-.927-.581-1.218-1.009a2.534 2.534 0 0 1-.433-1.472 2.705 2.705 0 0 1 .96-2.112 2.167 2.167 0 0 1 1.009-.473v-.059a1.966 1.966 0 0 1-1.163-.821 2.483 2.483 0 0 1-.428-1.446 2.46 2.46 0 0 1 .393-1.388c.265-.407.63-.729 1.093-.964.468-.235 1-.353 1.596-.353.59 0 1.117.118 1.581.353.464.235.829.557 1.094.964.269.408.404.87.408 1.388a2.519 2.519 0 0 1-.443 1.446 1.964 1.964 0 0 1-1.148.821v.059c.368.067.7.224.994.473a2.765 2.765 0 0 1 .974 2.112 2.571 2.571 0 0 1-.447 1.472c-.291.428-.697.764-1.218 1.009-.517.242-1.115.363-1.795.363Zm0-1.094c.46 0 .858-.074 1.193-.223.334-.149.593-.36.775-.632a1.7 1.7 0 0 0 .279-.954 1.83 1.83 0 0 0-.299-1.019 2.024 2.024 0 0 0-.8-.696 2.514 2.514 0 0 0-1.149-.254c-.434 0-.822.085-1.163.254a2.024 2.024 0 0 0-.8.696 1.794 1.794 0 0 0-.284 1.019c-.003.364.085.683.264.954.182.272.442.483.78.632.338.149.74.223 1.203.223Zm0-4.832c.364 0 .687-.073.969-.219a1.66 1.66 0 0 0 .671-.611c.162-.262.245-.569.249-.92a1.697 1.697 0 0 0-.244-.9 1.581 1.581 0 0 0-.661-.596 2.148 2.148 0 0 0-.985-.214c-.38 0-.714.071-.999.214a1.543 1.543 0 0 0-.661.596 1.66 1.66 0 0 0-.229.9 1.71 1.71 0 0 0 .234.92c.162.262.386.465.671.611.285.146.613.219.984.219Zm327.945-4.395V172h-1.233v-8.889h-.06l-2.486 1.65v-1.252l2.546-1.691h1.233Zm6.11 10.321a3.493 3.493 0 0 1-1.576-.348 2.927 2.927 0 0 1-1.124-.954 2.595 2.595 0 0 1-.462-1.382h1.193c.046.46.255.841.626 1.143.375.298.822.447 1.343.447.417 0 .788-.097 1.113-.293.328-.195.585-.464.771-.805a2.39 2.39 0 0 0 .283-1.169c0-.444-.098-.84-.293-1.188a2.146 2.146 0 0 0-.796-.83 2.245 2.245 0 0 0-1.158-.308 3.142 3.142 0 0 0-.959.144c-.329.096-.599.22-.811.373l-1.153-.139.616-5.012h5.29v1.094h-4.256l-.358 3.003h.06c.209-.166.471-.303.786-.413.314-.109.643-.164.984-.164.623 0 1.178.149 1.665.448.491.294.875.699 1.154 1.213.282.513.422 1.1.422 1.76 0 .649-.145 1.229-.437 1.74a3.197 3.197 0 0 1-1.193 1.203c-.507.291-1.084.437-1.73.437Z"/><path stroke="#B0B0B0" stroke-linejoin="round" d="M397 167c0-3.967 3.69-7 8-7 4.31 0 8 3.033 8 7s-3.69 7-8 7a9.186 9.186 0 0 1-1.504-.123 5.98 5.98 0 0 1-3.935 1.107.749.749 0 0 1-.584-1.143 3.47 3.47 0 0 0 .522-1.756c-1.521-1.26-2.499-3.061-2.499-5.085Z" clip-rule="evenodd"/><g stroke="#B0B0B0" stroke-linecap="round" stroke-linejoin="round" stroke-opacity=".7" stroke-width="1.25" clip-path="url(#a)"><path d="M434.5 174.417a7.917 7.917 0 0 0 7.916-7.917 7.917 7.917 0 1 0-7.916 7.917Z"/><path d="M434.5 167.292a2.375 2.375 0 1 0 0-4.75 2.375 2.375 0 0 0 0 4.75Zm-3.958 6.065v-1.315a1.584 1.584 0 0 1 1.583-1.584h4.75a1.584 1.584 0 0 1 1.584 1.584v1.315"/></g><rect width="101" height="28" x="345" y="10" fill="#0E324A" rx="14"/><rect width="100" height="27" x="345.5" y="10.5" stroke="#66AAF9" stroke-opacity=".25" rx="13.5"/><path fill="#66AAF9" d="M361 17.5a6.499 6.499 0 0 0-4.596 11.096A6.5 6.5 0 1 0 361 17.5Zm0 12a5.502 5.502 0 0 1-5.081-3.395A5.5 5.5 0 1 1 361 29.5Zm2-8h-4a.501.501 0 0 0-.5.5v4a.503.503 0 0 0 .5.5h4a.501.501 0 0 0 .5-.5v-4a.503.503 0 0 0-.5-.5Zm-.5 4h-3v-3h3v3Zm13.966-6.682V29h-1.233V18.818h1.233Zm3.486 5.588V29h-1.173v-7.636h1.133v1.193h.1c.179-.388.451-.7.815-.935.365-.238.835-.358 1.412-.358.517 0 .97.106 1.357.318.388.21.69.527.905.955.216.424.323.961.323 1.61V29h-1.173v-4.773c0-.6-.156-1.067-.467-1.402-.312-.338-.739-.507-1.283-.507-.374 0-.709.081-1.004.244a1.74 1.74 0 0 0-.691.71c-.169.312-.254.69-.254 1.134ZM391.065 29V18.818h3.44c.796 0 1.449.136 1.959.408.511.268.888.638 1.134 1.108.245.471.368 1.006.368 1.606 0 .6-.123 1.132-.368 1.596-.246.464-.622.829-1.129 1.094-.507.262-1.155.393-1.944.393h-2.784v-1.114h2.744c.544 0 .982-.08 1.313-.238.335-.16.577-.385.726-.677.152-.295.228-.646.228-1.054a2.37 2.37 0 0 0-.228-1.069 1.56 1.56 0 0 0-.731-.705c-.335-.17-.777-.254-1.327-.254h-2.168V29h-1.233Zm4.793-4.574L398.363 29h-1.432l-2.465-4.574h1.392Zm7.123 4.733c-.736 0-1.371-.162-1.904-.487a3.263 3.263 0 0 1-1.228-1.372c-.285-.59-.428-1.276-.428-2.059 0-.782.143-1.471.428-2.068.288-.6.689-1.067 1.203-1.402.517-.338 1.12-.507 1.809-.507.398 0 .791.067 1.179.2.387.132.74.347 1.059.645.318.295.571.686.76 1.174.189.487.284 1.087.284 1.8v.497h-5.887v-1.015h4.693c0-.43-.086-.815-.258-1.153a1.948 1.948 0 0 0-.726-.8c-.312-.196-.679-.294-1.104-.294-.467 0-.871.116-1.213.348a2.286 2.286 0 0 0-.78.895 2.62 2.62 0 0 0-.274 1.183v.677c0 .576.1 1.065.299 1.466.202.398.482.701.84.91.358.205.774.308 1.248.308.308 0 .586-.043.835-.13a1.77 1.77 0 0 0 .651-.397c.182-.179.323-.4.423-.666l1.133.318c-.119.385-.32.723-.601 1.014-.282.289-.63.514-1.044.677-.415.159-.88.238-1.397.238Zm10.958-7.795L411.115 29h-1.193l-2.824-7.636h1.273l2.108 6.085h.08l2.108-6.085h1.272ZM415.488 29v-7.636h1.173V29h-1.173Zm.597-8.91a.835.835 0 0 1-.592-.233.749.749 0 0 1-.244-.561c0-.22.081-.407.244-.562a.835.835 0 0 1 .592-.234c.228 0 .424.078.586.234a.743.743 0 0 1 .249.561.743.743 0 0 1-.249.562.816.816 0 0 1-.586.234Zm5.927 9.07c-.736 0-1.371-.163-1.904-.488a3.263 3.263 0 0 1-1.228-1.372c-.285-.59-.428-1.276-.428-2.059 0-.782.143-1.471.428-2.068.288-.6.689-1.067 1.203-1.402.517-.338 1.12-.507 1.81-.507.397 0 .79.067 1.178.2.388.132.741.347 1.059.645.318.295.572.686.76 1.174.189.487.284 1.087.284 1.8v.497h-5.887v-1.015h4.694c0-.43-.087-.815-.259-1.153a1.948 1.948 0 0 0-.726-.8c-.311-.196-.679-.294-1.103-.294-.468 0-.872.116-1.213.348a2.28 2.28 0 0 0-.781.895 2.632 2.632 0 0 0-.273 1.183v.677c0 .576.099 1.065.298 1.466.202.398.482.701.84.91.358.205.774.308 1.248.308.308 0 .587-.043.835-.13a1.77 1.77 0 0 0 .651-.397c.183-.179.324-.4.423-.666l1.134.318a2.51 2.51 0 0 1-.602 1.014c-.282.289-.63.514-1.044.677-.414.159-.88.238-1.397.238Zm6.677-.16-2.327-7.636h1.233l1.651 5.846h.079l1.631-5.846h1.253l1.61 5.826h.08l1.651-5.826h1.232L434.456 29h-1.154l-1.67-5.866h-.119L429.842 29h-1.153Z"/><defs><clipPath id="a"><path fill="#fff" d="M425 157h19v19h-19z"/></clipPath></defs></svg>